<svg width="20" height="20" viewBox="0 0 20 20" fill="none" xmlns="http://www.w3.org/2000/svg">
<path d="M16.6941 16.6609H3.30664C2.60241 16.6601 1.92727 16.38 1.4293 15.882C0.931337 15.3841 0.651218 14.7089 0.650391 14.0047V5.99219C0.651218 5.28796 0.931337 4.61281 1.4293 4.11485C1.92727 3.61688 2.60241 3.33676 3.30664 3.33594H16.6941C17.3984 3.33676 18.0735 3.61688 18.5715 4.11485C19.0694 4.61281 19.3496 5.28796 19.3504 5.99219V14.0047C19.3496 14.7089 19.0694 15.3841 18.5715 15.882C18.0735 16.38 17.3984 16.6601 16.6941 16.6609ZM3.30664 4.27344C2.8508 4.27344 2.41363 4.45452 2.0913 4.77685C1.76897 5.09918 1.58789 5.53635 1.58789 5.99219V14.0047C1.58789 14.4605 1.76897 14.8977 2.0913 15.22C2.41363 15.5424 2.8508 15.7234 3.30664 15.7234H16.6941C17.15 15.7234 17.5872 15.5424 17.9095 15.22C18.2318 14.8977 18.4129 14.4605 18.4129 14.0047V5.99219C18.4129 5.53635 18.2318 5.09918 17.9095 4.77685C17.5872 4.45452 17.15 4.27344 16.6941 4.27344H3.30664Z" fill="#4394EA"/>
<path d="M9.99986 11.8977C9.4216 11.8987 8.8588 11.7111 8.39673 11.3634L1.09986 5.84462C1.0483 5.80844 1.00457 5.76224 0.971267 5.70877C0.937965 5.65531 0.915779 5.59569 0.906035 5.53346C0.89629 5.47123 0.899186 5.40768 0.91455 5.34659C0.929915 5.28551 0.957432 5.22815 0.995458 5.17794C1.03348 5.12773 1.08124 5.08569 1.13587 5.05435C1.19051 5.02301 1.2509 5.00299 1.31344 4.99551C1.37598 4.98802 1.43938 4.99322 1.49987 5.01079C1.56036 5.02835 1.61668 5.05793 1.66548 5.09775L8.96236 10.6227C9.26201 10.8464 9.62593 10.9673 9.99986 10.9673C10.3738 10.9673 10.7377 10.8464 11.0374 10.6227L18.3342 5.09775C18.383 5.05793 18.4394 5.02835 18.4998 5.01079C18.5603 4.99322 18.6237 4.98802 18.6863 4.99551C18.7488 5.00299 18.8092 5.02301 18.8638 5.05435C18.9185 5.08569 18.9662 5.12773 19.0043 5.17794C19.0423 5.22815 19.0698 5.28551 19.0852 5.34659C19.1005 5.40768 19.1034 5.47123 19.0937 5.53346C19.0839 5.59569 19.0618 5.65531 19.0285 5.70877C18.9951 5.76224 18.9514 5.80844 18.8999 5.84462L11.603 11.3634C11.1409 11.7111 10.5781 11.8987 9.99986 11.8977Z" fill="#4394EA"/>
<path d="M1.30342 15.3551C1.20835 15.3553 1.11549 15.3265 1.03715 15.2726C0.958809 15.2188 0.898701 15.1424 0.864799 15.0535C0.830898 14.9647 0.824806 14.8677 0.847332 14.7753C0.869858 14.683 0.919937 14.5996 0.990923 14.5364L6.74092 9.40827C6.83375 9.32539 6.9557 9.28278 7.07994 9.28981C7.20418 9.29685 7.32054 9.35295 7.40342 9.44577C7.4863 9.5386 7.52891 9.66055 7.52188 9.78479C7.51485 9.90903 7.45875 10.0254 7.36592 10.1083L1.61592 15.2364C1.53053 15.3141 1.41886 15.3565 1.30342 15.3551ZM18.6972 15.3551C18.5817 15.3565 18.4701 15.3141 18.3847 15.2364L12.6347 10.1083C12.5418 10.0254 12.4857 9.90903 12.4787 9.78479C12.4717 9.66055 12.5143 9.5386 12.5972 9.44577C12.6801 9.35295 12.7964 9.29685 12.9207 9.28981C13.0449 9.28278 13.1668 9.32539 13.2597 9.40827L19.0065 14.5364C19.0775 14.5996 19.1276 14.683 19.1501 14.7753C19.1727 14.8677 19.1666 14.9647 19.1327 15.0535C19.0988 15.1424 19.0387 15.2188 18.9603 15.2726C18.882 15.3265 18.7891 15.3553 18.694 15.3551H18.6972Z" fill="#4394EA"/>
</svg>
