<svg width="16" height="16" viewBox="0 0 16 16" fill="none" xmlns="http://www.w3.org/2000/svg">
<path fill-rule="evenodd" clip-rule="evenodd" d="M13.7977 2.68059C13.4188 2.74799 12.8816 2.92429 12.0214 3.21102L5.53042 5.37468C4.70303 5.65048 4.11927 5.84539 3.69936 6.00922C3.49169 6.09025 3.34706 6.15498 3.24649 6.20804C3.1613 6.25298 3.13068 6.27773 3.12886 6.279C2.723 6.6719 2.723 7.32295 3.12886 7.71585C3.13068 7.71712 3.1613 7.74188 3.24649 7.78682C3.34706 7.83987 3.49169 7.9046 3.69936 7.98563C4.11927 8.14946 4.70303 8.34437 5.53042 8.62017C5.54942 8.6265 5.56825 8.63277 5.58693 8.63898C5.86031 8.72991 6.10033 8.80974 6.32129 8.92659C6.85376 9.2082 7.28913 9.64357 7.57074 10.176C7.6876 10.397 7.76743 10.637 7.85836 10.9104C7.86457 10.9291 7.87083 10.9479 7.87716 10.9669C8.15296 11.7943 8.34787 12.3781 8.51171 12.798C8.59273 13.0056 8.65746 13.1503 8.71052 13.2508C8.75546 13.336 8.78022 13.3667 8.78148 13.3685C9.17438 13.7743 9.82543 13.7743 10.2183 13.3685C10.2196 13.3667 10.2444 13.336 10.2893 13.2508C10.3424 13.1503 10.4071 13.0056 10.4881 12.798C10.6519 12.3781 10.8469 11.7943 11.1227 10.9669L13.2863 4.47593C13.573 3.61576 13.7493 3.07853 13.8167 2.69963C13.8182 2.69174 13.8195 2.68406 13.8207 2.6766C13.8133 2.67786 13.8056 2.67918 13.7977 2.68059ZM14.0567 2.65747C14.0565 2.65766 14.0532 2.65739 14.0474 2.65612C14.054 2.65666 14.0569 2.65729 14.0567 2.65747ZM13.8412 2.44989C13.8399 2.44415 13.8397 2.44086 13.8399 2.44066C13.84 2.44045 13.8407 2.44331 13.8412 2.44989ZM13.4474 0.7115C13.9984 0.613482 14.7529 0.584295 15.333 1.16435C15.913 1.74441 15.8839 2.49892 15.7858 3.04991C15.6895 3.59134 15.4631 4.27046 15.2076 5.03675L15.1837 5.10839L13.02 11.5994L13.0106 11.6276C12.7463 12.4204 12.5357 13.0524 12.3513 13.5249C12.178 13.9691 11.9725 14.4295 11.663 14.7515C10.4826 15.98 8.51725 15.98 7.33678 14.7515C7.0273 14.4295 6.82181 13.9691 6.6485 13.5249C6.46413 13.0524 6.2535 12.4205 5.98924 11.6277L5.9798 11.5994C5.8594 11.2382 5.83228 11.1669 5.80276 11.1111C5.70889 10.9336 5.56377 10.7884 5.38627 10.6946C5.33046 10.6651 5.25917 10.6379 4.89797 10.5175L4.86964 10.5081C4.07685 10.2438 3.44494 10.0332 2.9724 9.84883C2.52821 9.67552 2.06784 9.47003 1.74579 9.16056C0.517353 7.98008 0.517353 6.01477 1.74579 4.8343C2.06784 4.52482 2.52821 4.31933 2.9724 4.14602C3.44496 3.96164 4.0769 3.751 4.86972 3.48673L4.89797 3.47731L11.389 1.31365C11.4129 1.30567 11.4368 1.29771 11.4606 1.28978C12.2269 1.03426 12.906 0.807816 13.4474 0.7115Z" fill="white"/>
</svg>
