<svg width="48" height="60" viewBox="0 0 48 60" fill="none" xmlns="http://www.w3.org/2000/svg">
<path d="M15.7153 12.8933C15.6986 10.6725 13.9657 8.97549 11.8726 8.92028C9.60576 8.85998 7.87643 10.6776 7.8163 12.7618C7.75545 14.8475 9.38044 16.8206 11.7509 16.8329C13.9497 16.8446 15.6812 15.0909 15.7153 12.8926M12.2363 0C12.2588 0.0385027 12.2972 0.0290618 12.3312 0.0305148C13.0782 0.0675645 13.815 0.172175 14.5423 0.34798C15.6312 0.610961 16.6607 1.02359 17.6301 1.5866C18.4436 2.05881 19.1884 2.62182 19.868 3.27346C21.2669 4.61669 22.2819 6.20547 22.9006 8.04561C23.1397 8.75609 23.3034 9.48402 23.4019 10.2272C23.4976 10.9537 23.5302 11.6816 23.4882 12.4124C23.4063 13.8457 23.0404 15.2071 22.4435 16.5097C21.9921 17.4955 21.4299 18.4145 20.7953 19.2906C20.3041 19.9684 19.7803 20.6207 19.2116 21.2346C18.8776 21.5957 18.5219 21.9371 18.1749 22.2851C17.9532 22.5074 17.7286 22.7275 17.5047 22.9476C16.9505 23.4925 16.3977 24.0373 15.8413 24.5793C15.2893 25.1161 14.7343 25.6515 14.1779 26.184C13.6425 26.6962 13.1042 27.2047 12.5645 27.7125C12.4356 27.8338 12.2986 27.9486 12.1603 28.0605C11.9386 28.2392 11.8792 28.2552 11.5778 28.2443C11.5495 28.2188 11.5126 28.1898 11.48 28.1564C10.6128 27.2882 9.70573 26.4623 8.8052 25.629C8.05755 24.9367 7.30844 24.2451 6.56875 23.5433C5.66533 22.6861 4.79523 21.7962 3.98092 20.8525C3.13473 19.8718 2.3581 18.8402 1.71042 17.7149C1.11852 16.6869 0.649056 15.6081 0.357092 14.4552C0.224513 13.9307 0.125984 13.4011 0.07672 12.8621C0.0622305 12.703 0.0528102 12.5424 0.0383207 12.3833C0.0332494 12.3245 0.0209357 12.2671 0.013691 12.209C0.00789518 12.1625 0.00137172 12.1145 0.00137172 12.0681C-7.72357e-05 11.8777 -0.000801712 11.6881 0.00137172 11.4985C0.00209619 11.4397 0.0158648 11.3815 0.0231095 11.3234C0.0274564 11.2886 0.0339813 11.2537 0.0368792 11.2181C0.0629603 10.9166 0.082518 10.6144 0.115119 10.3144C0.187567 9.65183 0.32884 9.0031 0.523 8.36598C1.06273 6.59196 1.97267 5.03296 3.24485 3.68754C4.18232 2.69592 5.25818 1.88809 6.4753 1.27204C7.41567 0.796207 8.40313 0.454767 9.43695 0.249177C10.0245 0.132216 10.6171 0.0588432 11.2148 0.0312375C11.2474 0.0297846 11.28 0.0123521 11.3119 0.00218153H12.2356L12.2363 0Z" fill="#1DB5E7"/>
<path d="M18.1225 42.7589C18.0841 42.748 18.0457 42.7307 18.0059 42.727C17.4742 42.6771 16.9511 42.5859 16.4368 42.4427C15.0779 42.0642 13.8797 41.3949 12.8388 40.4462C12.1107 39.7834 11.5102 39.0185 11.0386 38.1538C10.5642 37.2847 10.244 36.3628 10.0861 35.3838C10.0194 34.9684 9.98247 34.5516 9.97595 34.1312C9.96074 33.1355 10.667 32.2729 11.6167 32.0616C12.867 31.7823 13.9217 32.6094 14.1485 33.6652C14.189 33.8526 14.1919 34.0407 14.2028 34.2289C14.268 35.3157 14.6722 36.2593 15.4075 37.0589C16.1347 37.8491 17.0337 38.3361 18.0964 38.4881C19.3721 38.6719 20.5304 38.3607 21.551 37.5749C22.3341 36.9714 22.8564 36.1848 23.1404 35.2376C23.3229 34.6298 23.2396 34.0581 22.9332 33.511C22.8926 33.4387 22.847 33.3699 22.8028 33.2997C21.8307 31.7802 20.8592 30.2598 19.8864 28.741C19.7473 28.5239 19.6394 28.2959 19.5966 28.0412C19.4286 27.047 20.095 26.1699 20.9867 26.0042C21.1454 25.9746 21.304 25.9688 21.4641 25.9688H28.0365C28.5103 25.9688 28.9841 25.9702 29.4578 25.9688C29.7707 25.9673 30.0714 26.0202 30.3481 26.1721C30.8834 26.4652 31.192 26.9167 31.2753 27.5202C31.3347 27.9493 31.2282 28.3401 30.9971 28.7019C30.4328 29.584 29.87 30.4661 29.3057 31.3482C28.8725 32.0255 28.4393 32.7035 28.0047 33.3801C27.7555 33.7679 27.6186 34.1883 27.6207 34.6515C27.6222 34.8179 27.6497 34.9807 27.6925 35.1414C28.1372 36.8238 29.5216 38.1313 31.234 38.4526C32.6517 38.7189 33.9259 38.3766 35.0342 37.4577C35.8049 36.8187 36.3033 36.001 36.5417 35.0277C36.6192 34.7108 36.6612 34.3888 36.6663 34.0624C36.6829 33.0993 37.3733 32.2498 38.3164 32.0537C39.4979 31.8084 40.6222 32.5486 40.8511 33.7317C40.8859 33.9119 40.896 34.0957 40.8851 34.2795C40.8648 34.6334 40.8402 34.9872 40.7837 35.3382C40.6671 36.0589 40.4679 36.7565 40.1767 37.4273C39.7681 38.3694 39.214 39.2182 38.5084 39.9643C37.3298 41.2125 35.91 42.0591 34.2446 42.4897C33.7911 42.6069 33.3297 42.6807 32.8639 42.7256C32.7936 42.7321 32.7241 42.7466 32.6538 42.7582H31.481C31.4419 42.748 31.4035 42.7328 31.3637 42.7278C31.1761 42.7032 30.9877 42.6851 30.8008 42.6576C29.8924 42.5266 29.0282 42.2509 28.2075 41.8428C27.1948 41.3391 26.3132 40.664 25.5577 39.8239C25.5193 39.7805 25.4787 39.7385 25.4331 39.69C25.3998 39.7204 25.3744 39.7428 25.3505 39.7667C25.1484 39.9737 24.9542 40.1893 24.7435 40.3869C23.7576 41.3124 22.6159 41.9723 21.3229 42.3717C20.7332 42.5541 20.1305 42.6677 19.5169 42.7256C19.4778 42.7292 19.4402 42.7466 19.4018 42.7582H18.1225V42.7589Z" fill="#FF5F01"/>
<path d="M43.2589 13.3432C43.2495 13.3769 43.2328 13.4113 43.232 13.4458C43.2241 13.7374 43.1457 14.0143 43.0411 14.281C42.5018 15.6525 41.5138 16.4972 40.0874 16.8203C38.7198 17.0555 37.5235 16.7031 36.5261 15.7272C35.9265 15.1404 35.5563 14.418 35.4198 13.5828C35.2188 12.3541 35.5106 11.2522 36.304 10.2998C36.9392 9.53711 37.7573 9.07335 38.7358 8.93561C40.0322 8.75318 41.1661 9.1261 42.1091 10.0448C42.6775 10.5994 43.0397 11.2779 43.2001 12.0618C43.2168 12.1431 43.219 12.2281 43.2306 12.3102C43.2357 12.3439 43.2495 12.3761 43.2596 12.4091V13.3432H43.2589Z" fill="#FF5F01"/>
<g clip-path="url(#clip0_2705_13692)">
<path d="M4.87862 53.146C4.87862 53.3664 4.83913 53.5779 4.76195 53.7804C4.68297 53.983 4.58066 54.1765 4.45142 54.3593C4.11936 54.811 3.74422 55.1533 3.32421 55.3881C2.9042 55.6228 2.4088 55.7393 1.83801 55.7393C1.70877 55.7393 1.628 55.7483 1.59569 55.7662C1.56338 55.7842 1.54723 55.8307 1.54723 55.9042C1.56518 56.2268 1.61185 56.5458 1.68544 56.8631C1.75903 57.1803 1.79672 57.4993 1.79672 57.8219C1.79672 57.9689 1.78236 58.1212 1.75544 58.2771C1.72852 58.4331 1.68364 58.5836 1.62441 58.7252C1.56518 58.8686 1.4862 58.9958 1.38928 59.1123C1.29235 59.227 1.17568 59.322 1.03747 59.3955C0.926184 59.46 0.820283 59.4923 0.719767 59.4923C0.6372 59.4923 0.567198 59.4707 0.511555 59.4295C0.455912 59.3883 0.423603 59.3256 0.414629 59.2431L0.358986 58.6768L0.235136 57.1588C0.152569 56.2394 0.0915414 55.3218 0.0556428 54.4059C0.0179493 53.4901 0 52.5689 0 51.6387C0 51.4541 0.050258 51.2821 0.152569 51.1208C0.253085 50.9595 0.38591 50.8197 0.545659 50.6996C0.707202 50.5795 0.88131 50.4863 1.07157 50.4164C1.26004 50.3483 1.43774 50.3125 1.60287 50.3125C1.6298 50.3125 1.65851 50.3143 1.68544 50.3197C1.71236 50.325 1.74108 50.3268 1.76801 50.3268C2.37649 50.4003 2.92394 50.61 3.41216 50.9541C3.90038 51.3 4.30065 51.7301 4.61476 52.2445C4.78887 52.5384 4.87682 52.8377 4.87682 53.1406L4.87862 53.146ZM3.63473 53.3109C3.63473 53.146 3.56293 52.9722 3.42114 52.7929C3.27754 52.6137 3.10343 52.4524 2.89522 52.3108C2.68701 52.1674 2.47341 52.0492 2.25264 51.9524C2.03186 51.8556 1.84698 51.8072 1.6998 51.8072C1.57056 51.8072 1.44851 51.8538 1.33363 51.9452C1.21876 52.0366 1.16132 52.1513 1.16132 52.2893C1.16132 52.3807 1.19183 52.4542 1.25107 52.5098C1.3103 52.5653 1.37851 52.6227 1.4521 52.6818C1.52569 52.741 1.5921 52.8126 1.65313 52.8951C1.71236 52.9775 1.74288 53.0922 1.74288 53.2392C1.74288 53.4238 1.6998 53.5654 1.61185 53.6675C1.52389 53.7697 1.45748 53.8468 1.41081 53.9023C1.38389 53.9292 1.37671 53.9615 1.38928 53.9991C1.40363 54.0367 1.41979 54.0636 1.43774 54.0815C1.52928 54.2106 1.63518 54.3109 1.75544 54.3844C1.8757 54.4579 2.01391 54.4955 2.17007 54.4955C2.31725 54.4955 2.477 54.4633 2.64752 54.3988C2.81804 54.3342 2.97599 54.25 3.12497 54.1443C3.27216 54.0385 3.39421 53.9149 3.49114 53.7715C3.58806 53.6299 3.63653 53.474 3.63653 53.3091L3.63473 53.3109Z" fill="#1DB5E7"/>
<path d="M12.315 58.4784C12.315 58.5806 12.2971 58.6863 12.2594 58.7957C12.2217 58.9068 12.1696 59.0125 12.0996 59.1129C12.0296 59.2132 11.9507 59.2975 11.8573 59.362C11.7658 59.4265 11.6635 59.4588 11.554 59.4588C11.4624 59.4588 11.3691 59.4211 11.2776 59.3477C11.0568 59.1828 10.8719 59.0036 10.7247 58.81C10.5775 58.6164 10.4501 58.4121 10.3442 58.1953C10.2383 57.9784 10.1468 57.7544 10.0678 57.5196C9.9888 57.2848 9.91341 57.0429 9.83982 56.7955C9.82187 56.731 9.79315 56.6575 9.75725 56.5751C9.71956 56.4927 9.66033 56.4514 9.57776 56.4514C9.52212 56.4514 9.47186 56.4676 9.42519 56.4998C9.37852 56.5321 9.33724 56.5661 9.30134 56.6038C9.19903 56.7059 9.10031 56.8117 9.00338 56.921C8.90646 57.0321 8.80774 57.1379 8.70542 57.2382C8.42003 57.5232 8.12207 57.7848 7.81334 58.025C7.50462 58.2652 7.17435 58.4856 6.82434 58.6881C6.66818 58.7795 6.49766 58.8566 6.31278 58.9157C6.12791 58.9749 5.93944 59.0053 5.74559 59.0053C5.52481 59.0053 5.32198 58.9587 5.13711 58.8673C4.95223 58.7759 4.79607 58.6541 4.66683 58.5017C4.5376 58.3494 4.43888 58.1755 4.36888 57.9766C4.29887 57.7795 4.26477 57.5752 4.26477 57.3619C4.26477 57.0482 4.34375 56.7722 4.49991 56.5339C4.89659 55.9353 5.35609 55.455 5.882 55.0911C6.40792 54.7273 6.98768 54.3993 7.62308 54.1054C7.77924 54.0319 7.93899 53.9692 8.10053 53.919C8.26208 53.8688 8.42542 53.8438 8.59055 53.8438C8.73773 53.8438 8.86517 53.867 8.97107 53.9119C9.07697 53.9585 9.16493 54.0086 9.23313 54.0642C9.30134 54.1198 9.36416 54.1699 9.41981 54.2165C9.47545 54.2631 9.53109 54.2864 9.58494 54.2864C9.63879 54.2864 9.68546 54.2649 9.72315 54.2237C9.75905 54.1825 9.80213 54.1359 9.847 54.0857C9.89367 54.0355 9.94393 53.9889 9.99957 53.9477C10.0552 53.9065 10.1324 53.885 10.2347 53.885C10.3909 53.885 10.5434 53.9423 10.6906 54.057C10.8378 54.1717 10.9437 54.299 11.0083 54.437C11.1088 54.6574 11.1699 54.9263 11.1878 55.2435C11.2058 55.5607 11.2237 55.8833 11.2435 56.2095C11.2614 56.5357 11.3009 56.8457 11.3601 57.1414C11.4194 57.4354 11.5378 57.6701 11.7119 57.8458C11.7676 57.9103 11.8232 57.9569 11.8771 57.9838C11.9327 58.0107 11.9973 58.0393 12.0709 58.0662C12.2271 58.1397 12.3061 58.2777 12.3061 58.4802L12.315 58.4784ZM8.26567 56.1593C8.26567 56.1217 8.26387 56.0625 8.25849 55.9801C8.2531 55.8976 8.24413 55.8152 8.23156 55.731C8.219 55.6467 8.19207 55.575 8.15618 55.5105C8.11848 55.446 8.07361 55.4137 8.01797 55.4137C7.9713 55.4137 7.92104 55.4299 7.8654 55.4621C7.80976 55.4944 7.73616 55.5338 7.64462 55.5786C7.27666 55.7811 6.93203 56.0088 6.61433 56.2615C6.29663 56.5142 6.00406 56.8027 5.73661 57.1235C5.69892 57.1701 5.68097 57.2346 5.68097 57.3171C5.68097 57.4372 5.72405 57.5214 5.812 57.5716C5.89995 57.6218 5.99329 57.6468 6.0956 57.6468C6.18714 57.6468 6.29843 57.6092 6.42766 57.5357C6.5569 57.4622 6.68792 57.3744 6.82075 57.2741C6.95357 57.1737 7.08281 57.0697 7.20845 56.964C7.3323 56.8583 7.43641 56.7776 7.51898 56.7221C7.59257 56.6755 7.67155 56.6307 7.75411 56.5841C7.83668 56.5375 7.91925 56.4962 8.00361 56.4604L8.15618 56.4048C8.22079 56.3869 8.2549 56.3529 8.26028 56.3009C8.26567 56.2507 8.26746 56.2023 8.26746 56.1557L8.26567 56.1593Z" fill="#1DB5E7"/>
<path d="M20.482 55.3999C20.482 55.5379 20.4605 55.7297 20.4192 55.9734C20.3779 56.2171 20.3204 56.4788 20.2469 56.7602C20.1733 57.0416 20.0835 57.3265 19.9776 57.6151C19.8717 57.9054 19.7515 58.1671 19.6186 58.4019C19.4858 58.6366 19.344 58.8302 19.1968 58.9807C19.0496 59.1331 18.8935 59.2084 18.7266 59.2084C18.6153 59.2084 18.5058 59.1779 18.3945 59.1187C18.2832 59.0596 18.1773 58.9861 18.0768 58.8983C17.9745 58.8105 17.8811 58.7191 17.7932 58.6223C17.7052 58.5255 17.6298 58.4413 17.5652 58.3678C17.4539 58.2388 17.3391 58.1061 17.2206 57.9681C17.1003 57.8301 16.9909 57.6975 16.8885 57.5685C16.806 57.4771 16.7503 57.495 16.7234 57.624C16.6408 57.8911 16.5349 58.1438 16.4057 58.3821C16.2585 58.6581 16.0485 58.8858 15.7775 59.065C15.5064 59.2442 15.2139 59.3338 14.8998 59.3338C14.6323 59.3338 14.4026 59.2675 14.2087 59.1331C14.0149 59.0005 13.8677 58.8141 13.7672 58.5739C13.453 57.8749 13.2215 57.1581 13.0689 56.4215C12.9164 55.6849 12.771 54.9447 12.6328 54.1991C12.6328 54.1812 12.631 54.1579 12.6256 54.131C12.6202 54.1041 12.6184 54.0808 12.6184 54.0611C12.6184 53.8586 12.6938 53.7188 12.8464 53.6399C12.9989 53.5611 13.1569 53.5234 13.3238 53.5234C13.4154 53.5234 13.5213 53.5342 13.6415 53.5575C13.7618 53.5808 13.8749 53.6202 13.9808 53.674C14.0867 53.7295 14.1746 53.7959 14.2428 53.8747C14.3128 53.9536 14.3469 54.0468 14.3469 54.1579V54.226C14.3379 54.4195 14.3236 54.6095 14.3056 54.7995C14.2877 54.9877 14.2787 55.1794 14.2787 55.373C14.2787 55.7315 14.311 56.0953 14.3756 56.4627C14.4403 56.8301 14.5641 57.176 14.749 57.4968C14.7849 57.5613 14.8369 57.642 14.9016 57.7387C14.9662 57.8355 15.0434 57.8839 15.1367 57.8839C15.2372 57.8839 15.3234 57.8248 15.3916 57.7047C15.4598 57.5846 15.5136 57.4878 15.5513 57.4143C15.7075 57.0917 15.8098 56.7656 15.8547 56.434C15.9013 56.1024 15.9336 55.7619 15.9516 55.4124C15.9695 55.2278 16.0324 55.054 16.1383 54.8873C16.2442 54.7224 16.3985 54.6382 16.6014 54.6382C16.7396 54.6382 16.867 54.6938 16.9819 54.8031C17.0968 54.9142 17.2009 55.0468 17.2924 55.2027C17.3839 55.3587 17.4647 55.52 17.5347 55.6866C17.6029 55.8515 17.6622 55.9895 17.707 56.1006C17.7429 56.1741 17.8022 56.287 17.8793 56.4394C17.9583 56.5917 18.0445 56.7423 18.1414 56.8946C18.2383 57.0469 18.3371 57.1796 18.4394 57.2943C18.5399 57.409 18.6332 57.4663 18.7158 57.4663C18.7894 57.4663 18.8486 57.4179 18.8953 57.3212C18.9419 57.2244 18.9778 57.1097 19.0066 56.9753C19.0335 56.8426 19.055 56.7136 19.0694 56.5881C19.0837 56.4645 19.0909 56.3749 19.0909 56.3193C19.0909 56.0989 19.073 55.8784 19.0353 55.6562C18.9976 55.4357 18.9796 55.2153 18.9796 54.9931C18.9796 54.8192 19.0353 54.6866 19.1448 54.6006C19.2561 54.5127 19.3889 54.4697 19.545 54.4697C19.8035 54.4697 20.0243 54.5575 20.2092 54.7314C20.394 54.907 20.4856 55.1275 20.4856 55.3945L20.482 55.3999Z" fill="#1DB5E7"/>
<path d="M26.9222 58.5291C26.9222 58.7406 26.8163 58.8697 26.6045 58.9163L25.8165 59.0686C25.567 59.1242 25.3193 59.1797 25.0698 59.2335C24.8203 59.2873 24.5726 59.3392 24.3231 59.3858C24.0646 59.4414 23.8098 59.4844 23.5567 59.5167C23.3036 59.5489 23.0469 59.565 22.7902 59.565H22.521C22.4331 59.565 22.3433 59.5561 22.2518 59.5382C21.9843 59.5005 21.7887 59.3858 21.6648 59.1923C21.541 58.9987 21.4781 58.7836 21.4781 58.5435C21.4781 58.2406 21.5607 57.9682 21.7276 57.7298C22.022 57.2692 22.3307 56.8265 22.6538 56.3982C22.9769 55.9698 23.2569 55.5075 23.4974 55.011C23.5154 54.9644 23.5369 54.9142 23.5603 54.8587C23.5836 54.8031 23.5944 54.7529 23.5944 54.7063C23.5944 54.6418 23.5621 54.6096 23.4974 54.6096C23.4239 54.6096 23.3485 54.6311 23.2695 54.6723C23.1905 54.7135 23.1097 54.7601 23.0272 54.8103C22.9446 54.8605 22.862 54.9071 22.7777 54.9483C22.6951 54.9895 22.6072 55.011 22.5156 55.011C22.4241 55.011 22.3272 54.9877 22.2248 54.9411C22.1225 54.8945 22.0292 54.8372 21.9412 54.7691C21.8533 54.6992 21.7797 54.6203 21.7205 54.5271C21.6612 54.4357 21.6307 54.3389 21.6307 54.2368C21.6307 54.1077 21.672 54.0038 21.7546 53.9267C21.8371 53.8479 21.9287 53.7869 22.031 53.7403C22.3164 53.6023 22.6161 53.502 22.9285 53.4374C23.2408 53.3729 23.5459 53.3048 23.8403 53.2295C23.9605 53.2027 24.0952 53.1614 24.2477 53.1059C24.4003 53.0503 24.5313 53.0234 24.6408 53.0234C24.8436 53.0234 24.989 53.1023 25.0752 53.2582C25.1631 53.4141 25.2062 53.5808 25.2062 53.7547C25.2062 53.9751 25.1506 54.226 25.0411 54.5074C24.9298 54.7888 24.7916 55.0773 24.6265 55.3766C24.4613 55.6759 24.2836 55.9698 24.0952 56.2602C23.9067 56.5505 23.729 56.8194 23.5639 57.0667C23.3987 57.3158 23.2605 57.5291 23.1492 57.7083C23.0379 57.8875 22.9841 58.0094 22.9841 58.0739C22.9841 58.0918 22.9931 58.1116 23.011 58.1295C23.029 58.1474 23.099 58.1564 23.2192 58.1564C23.4687 58.1564 23.7146 58.1331 23.9587 58.0883C24.2029 58.0417 24.4452 57.9897 24.6839 57.9287C24.9226 57.8696 25.1649 57.814 25.409 57.7639C25.6532 57.7137 25.8991 57.6796 26.1486 57.6599H26.2168C26.3083 57.6599 26.398 57.6868 26.486 57.7424C26.574 57.7979 26.6493 57.8696 26.714 57.9556C26.7786 58.0434 26.8288 58.1366 26.8665 58.2388C26.9042 58.341 26.9222 58.4359 26.9222 58.5291Z" fill="#1DB5E7"/>
<path d="M29.2592 51.6822C29.2592 51.8291 29.1946 51.9671 29.0654 52.0962C28.9361 52.2252 28.8033 52.3041 28.6651 52.331C28.5359 52.3578 28.412 52.3722 28.2917 52.3722C27.9884 52.3722 27.712 52.2897 27.4625 52.1231C27.213 51.9582 27.0102 51.7413 26.854 51.4743C26.7894 51.3829 26.7571 51.2861 26.7571 51.1839C26.7571 51.0101 26.8307 50.8829 26.9779 50.804C27.125 50.7251 27.2776 50.6875 27.4338 50.6875C27.554 50.6875 27.7156 50.7126 27.9184 50.7628C28.1212 50.813 28.3205 50.8829 28.5197 50.9689C28.7171 51.0567 28.8913 51.1606 29.0384 51.2789C29.1856 51.399 29.2592 51.5316 29.2592 51.6786V51.6822ZM29.7977 58.4711C29.7977 58.5625 29.7636 58.6414 29.6936 58.7059C29.6254 58.7704 29.541 58.8206 29.4441 58.8582C29.3472 58.8959 29.2484 58.9228 29.1461 58.9407C29.0438 58.9586 28.9577 58.9676 28.8841 58.9676C28.7818 58.9676 28.6812 58.9532 28.5807 58.9263C28.4784 58.8995 28.3923 58.8475 28.3187 58.774C28.1069 58.5536 27.9274 58.3009 27.7802 58.0141C27.633 57.7291 27.5504 57.4298 27.5307 57.118C27.5127 56.7685 27.5002 56.419 27.4966 56.0695C27.4912 55.7201 27.4894 55.3706 27.4894 55.0211V54.082C27.4894 53.926 27.5307 53.8042 27.6133 53.7164C27.6958 53.6285 27.8161 53.5855 27.9722 53.5855C28.0835 53.5855 28.193 53.6088 28.3043 53.6554C28.4156 53.702 28.5161 53.7612 28.6077 53.8346C28.6992 53.9081 28.7728 53.9959 28.8284 54.0963C28.8841 54.1967 28.911 54.3078 28.911 54.4279C28.911 54.7308 28.8805 55.0336 28.8212 55.3311C28.762 55.6304 28.7315 55.9262 28.7315 56.2219C28.7315 56.5534 28.7871 56.8384 28.8966 57.0768C29.0061 57.3151 29.13 57.523 29.2628 57.6969C29.3956 57.8725 29.5177 58.0213 29.629 58.1449C29.7403 58.2686 29.7941 58.3779 29.7941 58.4693L29.7977 58.4711Z" fill="#1DB5E7"/>
<path d="M37.0258 56.3246C37.0258 56.5451 36.9881 56.7799 36.9145 57.029C36.7852 57.4251 36.6111 57.762 36.3886 58.0434C36.1678 58.3248 35.9111 58.5649 35.6221 58.7674C35.3313 58.97 35.019 59.1438 34.6816 59.2926C34.3459 59.4395 33.9977 59.5829 33.6387 59.7209C33.4269 59.8123 33.1864 59.8589 32.9207 59.8589C32.8184 59.8589 32.7179 59.8499 32.6174 59.832C32.5151 59.8141 32.4236 59.7818 32.341 59.7352C32.2584 59.6886 32.192 59.6295 32.14 59.556C32.0897 59.4825 32.0646 59.3858 32.0646 59.2657C32.0646 59.1832 32.07 59.1223 32.0789 59.0865C32.1059 58.9664 32.1346 58.8284 32.1615 58.6725C32.1884 58.5165 32.2315 58.3732 32.2853 58.2441C32.341 58.1151 32.4182 58.0058 32.5205 57.9126C32.621 57.8212 32.7556 57.7746 32.9207 57.7746C33.059 57.7746 33.1595 57.8122 33.2241 57.8857C33.2887 57.9592 33.3354 58.0398 33.3623 58.1276C33.3892 58.2154 33.4108 58.2961 33.4251 58.3696C33.4395 58.4431 33.4736 58.4807 33.5292 58.4807C33.5472 58.4807 33.5849 58.4717 33.6405 58.4538C33.8344 58.3714 34.0282 58.2889 34.2203 58.2047C34.4141 58.1222 34.5954 58.0273 34.7659 57.9215C34.9365 57.8158 35.0908 57.6885 35.229 57.5416C35.3672 57.3946 35.4821 57.21 35.5737 56.9896C35.6203 56.8892 35.6562 56.7852 35.6849 56.6795C35.7119 56.5738 35.7262 56.4698 35.7262 56.3695C35.7262 56.2225 35.6849 56.0935 35.6024 55.9823C35.5198 55.8712 35.4157 55.7816 35.2919 55.7135C35.168 55.6454 35.0316 55.5916 34.8844 55.5558C34.7372 55.5199 34.6026 55.5002 34.4841 55.5002C34.2436 55.5002 34.0157 55.5647 33.8003 55.6938C33.5831 55.8228 33.4287 56.0074 33.3372 56.2458C33.2815 56.4017 33.2349 56.5433 33.199 56.667C33.1613 56.7906 33.12 56.9089 33.0751 57.0182C33.0284 57.1294 32.9692 57.2387 32.8956 57.3498C32.822 57.4609 32.7197 57.5792 32.5923 57.7082C32.49 57.7996 32.3751 57.8731 32.2459 57.9287C32.1166 57.9842 31.9874 58.0111 31.8582 58.0111C31.6643 58.0111 31.5189 57.952 31.422 57.8319C31.3251 57.7118 31.2766 57.5613 31.2766 57.3767C31.2766 57.1921 31.2856 57.0164 31.3035 56.8462C31.3215 56.6759 31.3304 56.4985 31.3304 56.3157C31.3304 56.0038 31.2999 55.6956 31.2407 55.3909C31.1815 55.088 31.1097 54.7887 31.0271 54.4948C30.9715 54.2833 30.9194 54.0987 30.8673 53.9428C30.8171 53.7869 30.7543 53.6417 30.6807 53.5073C30.6071 53.3747 30.5191 53.242 30.4186 53.1148C30.3163 52.9857 30.1889 52.8442 30.0309 52.6864C29.8748 52.5484 29.7958 52.3836 29.7958 52.19C29.7958 52.0896 29.8209 51.9785 29.8712 51.8584C29.9214 51.7384 29.9914 51.6308 30.0794 51.534C30.1673 51.4373 30.2643 51.3566 30.3702 51.2921C30.4761 51.2276 30.5837 51.1953 30.695 51.1953C30.8153 51.1953 30.9158 51.2455 30.9984 51.3477C31.063 51.4301 31.1258 51.5179 31.1851 51.6093C31.2443 51.7007 31.3017 51.7939 31.3574 51.8853C31.6069 52.2904 31.8276 52.7062 32.0215 53.1345C32.2153 53.5628 32.3625 54.0109 32.463 54.4805C32.472 54.5271 32.4864 54.5772 32.5043 54.6328C32.5223 54.6884 32.56 54.7152 32.6156 54.7152C32.6533 54.7152 32.7215 54.674 32.8238 54.5916C32.9243 54.5091 33.0536 54.4195 33.2115 54.3227C33.3677 54.226 33.5508 54.1363 33.7572 54.0539C33.9654 53.9715 34.1934 53.9302 34.4411 53.9302C34.7444 53.9302 35.0406 53.9948 35.326 54.1238C35.5557 54.226 35.7747 54.3478 35.9829 54.4894C36.1911 54.6328 36.3706 54.7959 36.5214 54.9787C36.6739 55.1633 36.796 55.3676 36.8875 55.5934C36.9791 55.8192 37.0258 56.0648 37.0258 56.3318V56.3246Z" fill="#1DB5E7"/>
<path d="M39.9982 55.2834C39.9982 55.6329 39.9892 55.9787 39.9713 56.3193C39.9533 56.6598 39.9336 57.0057 39.9156 57.3552C39.8977 57.5398 39.8887 57.7208 39.8887 57.9C39.8887 58.0792 39.8798 58.2567 39.8618 58.4305C39.8439 58.5685 39.79 58.6671 39.7038 58.728C39.6159 58.7872 39.5082 58.8176 39.379 58.8176C39.2138 58.8176 39.0613 58.771 38.9231 58.6796C38.7848 58.5882 38.6933 58.4592 38.6466 58.2925C38.591 58.081 38.5515 57.8588 38.53 57.624C38.5066 57.3892 38.4959 57.1616 38.4959 56.9412C38.4959 56.5648 38.5138 56.192 38.5515 55.8228C38.5874 55.4554 38.6071 55.0826 38.6071 54.7045C38.6071 54.3908 38.5802 54.0611 38.5246 53.7116C38.4689 53.3621 38.4007 53.0108 38.3164 52.656C38.2338 52.3011 38.1405 51.9552 38.0399 51.6147C37.9376 51.2742 37.8425 50.9569 37.7492 50.663C37.7222 50.5985 37.7079 50.5304 37.7079 50.4551C37.7079 50.335 37.742 50.2347 37.812 50.1522C37.882 50.0698 37.9664 49.9999 38.0669 49.9461C38.1674 49.8906 38.2769 49.8494 38.3918 49.8225C38.5066 49.7956 38.6143 49.7812 38.7166 49.7812C38.9015 49.7812 39.0649 49.8189 39.2067 49.8924C39.3484 49.9658 39.4292 50.1092 39.449 50.3207C39.5226 50.9283 39.6123 51.5269 39.7182 52.1147C39.8241 52.7044 39.8995 53.3012 39.9462 53.9087C39.9641 54.1489 39.9785 54.3801 39.9874 54.6059C39.9964 54.8317 40.0018 55.0593 40.0018 55.2887L39.9982 55.2834Z" fill="#1DB5E7"/>
<path d="M48.0001 58.7642C48.0001 58.929 47.9444 59.0491 47.8349 59.1226C47.6967 59.223 47.528 59.309 47.3305 59.3771C47.1331 59.4452 46.9267 59.5008 46.7149 59.542C46.5031 59.5832 46.2913 59.6137 46.0795 59.6316C45.8677 59.6495 45.6792 59.6585 45.5123 59.6585C45.2538 59.6585 44.9936 59.6423 44.7315 59.6101C44.4694 59.5778 44.2181 59.5205 43.9776 59.438C43.7012 59.3556 43.4122 59.2498 43.1143 59.1208C42.8145 58.9918 42.5399 58.8358 42.2922 58.6512C42.0427 58.4666 41.8381 58.248 41.6765 57.9953C41.515 57.7426 41.4342 57.4505 41.4342 57.1189C41.4342 57.0454 41.436 56.9791 41.4414 56.9182C41.4468 56.859 41.4522 56.7963 41.4629 56.7318C41.5186 56.3913 41.6065 56.092 41.725 55.8339C41.8452 55.5758 41.996 55.3446 42.1809 55.1367C42.3658 54.9288 42.574 54.7388 42.8091 54.5632C43.0443 54.3893 43.2991 54.2137 43.5756 54.0381C43.9076 53.8266 44.2558 53.6456 44.6184 53.4932C44.9828 53.3409 45.3669 53.2656 45.7725 53.2656C45.9754 53.2656 46.189 53.2925 46.4151 53.3481C46.6413 53.4036 46.8477 53.4861 47.038 53.5972C47.2264 53.7083 47.3826 53.8499 47.5082 54.0255C47.6321 54.2012 47.6949 54.4073 47.6949 54.6456C47.6949 54.8392 47.6536 55.0238 47.5711 55.1976C47.4885 55.3733 47.3826 55.5238 47.2534 55.6529C47.0505 55.8554 46.8423 56.0095 46.6323 56.1153C46.4223 56.221 46.2033 56.3106 45.9826 56.3841C45.7618 56.4576 45.5338 56.5239 45.2987 56.5848C45.0636 56.644 44.8266 56.73 44.5861 56.8393C44.4102 56.9128 44.2217 56.9773 44.0189 57.0329C43.8161 57.0884 43.6222 57.1153 43.4391 57.1153C43.3368 57.1153 43.2381 57.1046 43.1412 57.0813C43.0443 57.058 42.9599 57.0096 42.8863 56.9361C42.8127 56.8626 42.775 56.8805 42.775 56.9917C42.775 57.2031 42.8414 57.3841 42.976 57.5365C43.1107 57.6888 43.2704 57.8143 43.4607 57.9164C43.6491 58.0186 43.852 58.101 44.0692 58.1656C44.2863 58.2301 44.4766 58.2803 44.6435 58.3179C44.8553 58.3735 45.0653 58.4165 45.2718 58.4487C45.48 58.481 45.6936 58.4971 45.9143 58.4971C46.1728 58.4971 46.4277 58.4792 46.6808 58.4416C46.9339 58.4039 47.1887 58.3627 47.4472 58.3179C47.4652 58.3179 47.4831 58.3161 47.5029 58.3107C47.5208 58.3053 47.5388 58.3036 47.5585 58.3036C47.6967 58.3036 47.8044 58.3466 47.8834 58.4344C47.9624 58.5222 48.0019 58.6297 48.0019 58.7588L48.0001 58.7642ZM46.3415 54.7352C46.3415 54.6618 46.32 54.6026 46.2787 54.556C46.2374 54.5094 46.18 54.4861 46.1064 54.4861C46.0238 54.4861 45.9359 54.4951 45.8443 54.513C45.7528 54.5309 45.6649 54.5506 45.5823 54.5686C45.3615 54.6152 45.1336 54.6797 44.8984 54.7621C44.6633 54.8446 44.4335 54.9414 44.2074 55.0525C43.9812 55.1636 43.7658 55.289 43.5576 55.4324C43.3494 55.5758 43.1735 55.7299 43.0263 55.8948C42.9348 56.0239 42.976 56.0507 43.1502 55.9773C43.3799 55.9038 43.6115 55.8446 43.8412 55.798C44.071 55.7514 44.3061 55.7013 44.5466 55.6457C44.6292 55.6278 44.7692 55.5883 44.9684 55.5274C45.1659 55.4683 45.3669 55.3966 45.5697 55.3141C45.7726 55.2317 45.952 55.1403 46.1082 55.0381C46.2644 54.9378 46.3433 54.8356 46.3433 54.7352H46.3415Z" fill="#1DB5E7"/>
</g>
<defs>
<clipPath id="clip0_2705_13692">
<rect width="48" height="10.0741" fill="white" transform="translate(0 49.7812)"/>
</clipPath>
</defs>
</svg>
