<svg width="165" height="34" viewBox="0 0 165 34" fill="none" xmlns="http://www.w3.org/2000/svg">
<path d="M13.3512 10.1333C13.3381 8.38791 11.9762 7.05417 10.3311 7.01077C8.54952 6.96338 7.19037 8.39192 7.14312 10.03C7.09529 11.6692 8.37243 13.2199 10.2355 13.2296C11.9636 13.2388 13.3244 11.861 13.3512 10.1333ZM10.617 0C10.6346 0.0302607 10.6648 0.0228407 10.6915 0.0239827C11.2786 0.0531014 11.8577 0.135319 12.4293 0.27349C13.2851 0.480177 14.0943 0.804477 14.8561 1.24697C15.4955 1.61809 16.0809 2.06058 16.615 2.57273C17.7144 3.62843 18.5122 4.87711 18.9984 6.32334C19.1863 6.88173 19.315 7.45384 19.3924 8.03793C19.4676 8.60891 19.4932 9.181 19.4602 9.75536C19.3959 10.8818 19.1083 11.9518 18.6392 12.9756C18.2844 13.7504 17.8425 14.4726 17.3438 15.1612C16.9577 15.6939 16.5461 16.2066 16.0991 16.689C15.8366 16.9729 15.557 17.2412 15.2843 17.5147C15.1101 17.6894 14.9336 17.8624 14.7576 18.0354C14.322 18.4636 13.8876 18.8918 13.4503 19.3178C13.0164 19.7397 12.5802 20.1605 12.1429 20.579C11.7221 20.9815 11.2991 21.3812 10.8749 21.7803C10.7736 21.8756 10.6659 21.9658 10.5572 22.0538C10.383 22.1942 10.3363 22.2068 10.0994 22.1982C10.0772 22.1782 10.0482 22.1554 10.0226 22.1291C9.34099 21.4468 8.62809 20.7977 7.92033 20.1428C7.33272 19.5987 6.74397 19.0551 6.16262 18.5035C5.45259 17.8298 4.76875 17.1304 4.12875 16.3887C3.4637 15.618 2.85332 14.8072 2.34428 13.9228C1.87909 13.1148 1.51012 12.267 1.28065 11.3609C1.17645 10.9486 1.09902 10.5324 1.0603 10.1088C1.04891 9.98375 1.04151 9.85753 1.03012 9.73249C1.02613 9.68628 1.01645 9.64116 1.01076 9.5955C1.00621 9.55895 1.00108 9.52123 1.00108 9.48476C0.999939 9.33512 0.99937 9.18611 1.00108 9.03709C1.00165 8.99088 1.01247 8.94514 1.01816 8.89947C1.02158 8.87212 1.02671 8.84469 1.02898 8.81672C1.04948 8.57975 1.06485 8.34225 1.09048 8.10646C1.14742 7.58573 1.25845 7.07587 1.41104 6.57513C1.83524 5.18086 2.55039 3.95559 3.55025 2.89817C4.28704 2.11882 5.1326 1.48392 6.08917 0.999743C6.82825 0.625768 7.60433 0.357418 8.41684 0.195837C8.87862 0.103913 9.34437 0.046247 9.81412 0.0245507C9.83974 0.0234088 9.86536 0.00970797 9.89044 0.00171454H10.6164L10.617 0Z" fill="white"/>
<path d="M15.243 33.61C15.2129 33.6015 15.1828 33.5879 15.1514 33.585C14.7335 33.5458 14.3225 33.4741 13.9183 33.3615C12.8502 33.0641 11.9085 32.538 11.0904 31.7925C10.5182 31.2715 10.0463 30.6704 9.67561 29.9907C9.30269 29.3077 9.05103 28.5832 8.92693 27.8137C8.87459 27.4873 8.84552 27.1597 8.8404 26.8292C8.82845 26.0467 9.38356 25.3688 10.1299 25.2027C11.1126 24.9832 11.9415 25.6333 12.1197 26.463C12.1516 26.6103 12.1539 26.7582 12.1624 26.906C12.2136 27.7602 12.5314 28.5018 13.1092 29.1303C13.6808 29.7513 14.3874 30.1341 15.2226 30.2535C16.2251 30.3979 17.1355 30.1534 17.9377 29.5357C18.5532 29.0614 18.9637 28.4433 19.1868 27.6989C19.3303 27.2211 19.2648 26.7718 19.0239 26.3419C18.9921 26.285 18.9562 26.231 18.9215 26.1758C18.1574 24.9815 17.394 23.7866 16.6293 22.5929C16.5201 22.4222 16.4352 22.2431 16.4017 22.0429C16.2695 21.2615 16.7934 20.5722 17.4942 20.442C17.6188 20.4186 17.7436 20.4141 17.8694 20.4141H23.0349C23.4073 20.4141 23.7796 20.4153 24.1519 20.4141C24.3979 20.413 24.6341 20.4545 24.8516 20.5739C25.2724 20.8042 25.5149 21.1592 25.5804 21.6335C25.6271 21.9707 25.5434 22.2778 25.3617 22.5621C24.9182 23.2554 24.4758 23.9487 24.0323 24.642C23.6919 25.1743 23.3515 25.7071 23.0098 26.2389C22.814 26.5438 22.7064 26.8742 22.7081 27.2381C22.7092 27.369 22.7309 27.4969 22.7644 27.6232C23.114 28.9454 24.202 29.9731 25.5479 30.2256C26.6621 30.4349 27.6635 30.1659 28.5346 29.4436C29.1404 28.9415 29.5321 28.2988 29.7194 27.5339C29.7803 27.2848 29.8133 27.0317 29.8173 26.7752C29.8304 26.0183 30.3729 25.3506 31.1142 25.1964C32.0428 25.0036 32.9264 25.5855 33.1063 26.5153C33.1336 26.6569 33.1416 26.8014 33.1331 26.9458C33.1171 27.2239 33.0978 27.5021 33.0534 27.7778C32.9617 28.3443 32.8051 28.8925 32.5762 29.4197C32.2552 30.1602 31.8196 30.8273 31.2651 31.4137C30.3388 32.3947 29.2229 33.0601 27.9141 33.3985C27.5576 33.4907 27.1949 33.5487 26.8289 33.5839C26.7737 33.5891 26.719 33.6004 26.6638 33.6095H25.742C25.7113 33.6015 25.6811 33.5896 25.6498 33.5856C25.5023 33.5663 25.3543 33.552 25.2075 33.5304C24.4935 33.4275 23.8143 33.2109 23.1693 32.89C22.3734 32.4942 21.6805 31.9637 21.0866 31.3033C21.0564 31.2692 21.0246 31.2363 20.9887 31.1982C20.9625 31.222 20.9426 31.2396 20.9238 31.2584C20.7649 31.421 20.6124 31.5906 20.4467 31.7458C19.6719 32.4732 18.7746 32.9919 17.7583 33.3058C17.295 33.4492 16.8213 33.5384 16.339 33.5839C16.3083 33.5868 16.2787 33.6004 16.2485 33.6095L15.243 33.61Z" fill="#FF5F01"/>
<path d="M34.9994 10.4838C34.9919 10.5103 34.9788 10.5374 34.9782 10.5644C34.9719 10.7936 34.9103 11.0113 34.8282 11.2208C34.4043 12.2988 33.6278 12.9627 32.5068 13.2166C31.4319 13.4015 30.4917 13.1245 29.7078 12.3575C29.2366 11.8962 28.9456 11.3285 28.8383 10.6721C28.6803 9.70647 28.9097 8.84045 29.5333 8.09192C30.0324 7.49247 30.6754 7.12799 31.4445 7.01973C32.4634 6.87635 33.3546 7.16945 34.0956 7.89151C34.5423 8.32739 34.8271 8.86057 34.9532 9.47674C34.9663 9.54064 34.968 9.60744 34.9771 9.67189C34.9811 9.69838 34.9919 9.72376 34.9999 9.74962L34.9994 10.4838Z" fill="#FF5F01"/>
<mask id="mask0_2705_14063" style="mask-type:luminance" maskUnits="userSpaceOnUse" x="38" y="3" width="127" height="28">
<path d="M164.904 3.58594H38.9039V30.0304H164.904V3.58594Z" fill="white"/>
</mask>
<g mask="url(#mask0_2705_14063)">
<path d="M51.7108 12.4223C51.7108 13.0011 51.6071 13.5563 51.4045 14.0879C51.1972 14.6194 50.9286 15.1276 50.5894 15.6075C49.7177 16.7929 48.733 17.6915 47.6305 18.3078C46.5279 18.9242 45.2275 19.23 43.7292 19.23C43.3899 19.23 43.1779 19.2534 43.0931 19.3006C43.0083 19.3476 42.9659 19.4699 42.9659 19.6629C43.013 20.5097 43.1355 21.347 43.3287 22.1797C43.5219 23.0123 43.6208 23.8497 43.6208 24.6966C43.6208 25.0824 43.5831 25.4822 43.5124 25.8917C43.4418 26.301 43.324 26.696 43.1685 27.0677C43.013 27.4441 42.8057 27.778 42.5513 28.0839C42.2968 28.3849 41.9906 28.6343 41.6278 28.8273C41.3357 28.9966 41.0577 29.0814 40.7938 29.0814C40.5771 29.0814 40.3933 29.0249 40.2473 28.9168C40.1012 28.8084 40.0164 28.6438 39.9928 28.4275L39.8468 26.9407L39.5217 22.9559C39.3049 20.5425 39.1447 18.1338 39.0505 15.7298C38.9515 13.3256 38.9044 10.9074 38.9044 8.46591C38.9044 7.98133 39.0363 7.52958 39.3049 7.10616C39.5688 6.68275 39.9174 6.31577 40.3368 6.00077C40.7608 5.68551 41.2179 5.44086 41.7173 5.25738C42.212 5.07861 42.6785 4.98438 43.112 4.98438C43.1826 4.98438 43.258 4.9891 43.3287 5.00327C43.3994 5.01745 43.4748 5.02218 43.5454 5.02218C45.1427 5.21511 46.5798 5.76531 47.8613 6.66884C49.1429 7.57657 50.1936 8.70584 51.0182 10.0559C51.4752 10.8276 51.7061 11.6133 51.7061 12.4084L51.7108 12.4223ZM48.4456 12.8552C48.4456 12.4223 48.2571 11.9661 47.8849 11.4957C47.508 11.025 47.0509 10.6016 46.5044 10.2302C45.9578 9.85374 45.3971 9.54321 44.8176 9.28911C44.238 9.03501 43.7527 8.90796 43.3664 8.90796C43.0271 8.90796 42.7068 9.03028 42.4052 9.27021C42.1037 9.5104 41.9529 9.81148 41.9529 10.1737C41.9529 10.4137 42.033 10.6063 42.1885 10.7523C42.344 10.8982 42.523 11.0487 42.7162 11.2041C42.9094 11.3592 43.0837 11.5474 43.2439 11.7637C43.3994 11.9803 43.4795 12.2814 43.4795 12.667C43.4795 13.1515 43.3664 13.5232 43.1355 13.7915C42.9046 14.0595 42.7303 14.2619 42.6078 14.4079C42.5371 14.4782 42.5183 14.563 42.5513 14.6617C42.5889 14.7607 42.6314 14.8313 42.6785 14.8783C42.9188 15.2169 43.1968 15.4804 43.5124 15.6734C43.8281 15.866 44.1909 15.965 44.6009 15.965C44.9872 15.965 45.4065 15.8802 45.8542 15.7109C46.3018 15.5416 46.7164 15.3203 47.1075 15.0428C47.4938 14.7654 47.8142 14.4407 48.0687 14.0643C48.3231 13.6926 48.4503 13.2833 48.4503 12.8504L48.4456 12.8552Z" fill="white"/>
<path d="M71.2335 26.4083C71.2335 26.6765 71.1863 26.954 71.0873 27.2409C70.9884 27.5326 70.8519 27.8103 70.6681 28.0738C70.4844 28.3371 70.277 28.5584 70.0321 28.7277C69.7916 28.897 69.5231 28.9818 69.2357 28.9818C68.9955 28.9818 68.7506 28.8829 68.5101 28.6899C67.9305 28.2573 67.4454 27.7867 67.059 27.2787C66.6726 26.7705 66.3382 26.2342 66.0599 25.6649C65.7819 25.0958 65.5418 24.5078 65.3344 23.8914C65.1271 23.2751 64.9293 22.6398 64.7361 21.9907C64.6889 21.8214 64.6136 21.6284 64.5193 21.4121C64.4204 21.1955 64.2649 21.0874 64.0482 21.0874C63.9021 21.0874 63.7702 21.1297 63.6477 21.2145C63.5252 21.2992 63.4168 21.3885 63.3226 21.4872C63.054 21.7555 62.7949 22.0329 62.5404 22.3201C62.286 22.6117 62.0269 22.8892 61.7583 23.1528C61.0091 23.9009 60.227 24.5876 59.4166 25.2181C58.6062 25.8484 57.7392 26.4272 56.8204 26.9587C56.4105 27.1987 55.9629 27.4011 55.4776 27.5562C54.9923 27.7116 54.4976 27.7914 53.9887 27.7914C53.4092 27.7914 52.8768 27.6691 52.3915 27.4291C51.9061 27.1892 51.4962 26.8692 51.157 26.4694C50.8177 26.0697 50.5586 25.6132 50.3749 25.091C50.1911 24.5734 50.1016 24.0371 50.1016 23.4775C50.1016 22.654 50.3089 21.9295 50.7188 21.3037C51.7601 19.7324 52.9663 18.4716 54.3468 17.5166C55.7273 16.5616 57.2492 15.7006 58.9172 14.9291C59.3271 14.7362 59.7464 14.5716 60.1705 14.4399C60.5945 14.3081 61.0233 14.2422 61.4567 14.2422C61.8431 14.2422 62.1776 14.3033 62.4556 14.4209C62.7336 14.5433 62.9645 14.6751 63.1435 14.821C63.3226 14.9667 63.4875 15.0985 63.6335 15.2208C63.7796 15.3431 63.9257 15.4043 64.067 15.4043C64.2084 15.4043 64.3309 15.3478 64.4298 15.2397C64.524 15.1315 64.6371 15.0092 64.7549 14.8774C64.8774 14.7457 65.0094 14.6233 65.1554 14.5152C65.3016 14.407 65.504 14.3503 65.7728 14.3503C66.1825 14.3503 66.5831 14.501 66.9695 14.8021C67.3559 15.1032 67.6339 15.4371 67.8035 15.7996C68.0673 16.3781 68.2274 17.0838 68.2746 17.9164C68.3216 18.7493 68.3689 19.5961 68.4206 20.4524C68.4678 21.3084 68.5713 22.1224 68.7269 22.8987C68.8823 23.6701 69.1934 24.2865 69.6504 24.7477C69.7964 24.917 69.9426 25.0393 70.0838 25.11C70.23 25.1803 70.3996 25.2556 70.5928 25.3262C71.0026 25.5192 71.2099 25.8814 71.2099 26.413L71.2335 26.4083ZM60.6039 20.3206C60.6039 20.2217 60.5992 20.0665 60.5851 19.8502C60.571 19.6337 60.5474 19.4174 60.5144 19.1961C60.4814 18.9751 60.4108 18.7869 60.3165 18.6175C60.2176 18.4482 60.0998 18.3634 59.9537 18.3634C59.8312 18.3634 59.6993 18.4057 59.5532 18.4905C59.4072 18.5753 59.214 18.6787 58.9737 18.7963C58.0078 19.3279 57.1031 19.9253 56.2692 20.5887C55.4352 21.252 54.6672 22.0096 53.9652 22.8517C53.8662 22.974 53.8191 23.1433 53.8191 23.3596C53.8191 23.6749 53.9322 23.8962 54.163 24.0277C54.3939 24.1594 54.6389 24.2253 54.9075 24.2253C55.1478 24.2253 55.4399 24.1266 55.7791 23.9337C56.1184 23.7408 56.4624 23.5103 56.811 23.2467C57.1597 22.9834 57.4989 22.7104 57.8287 22.433C58.1539 22.1552 58.4271 21.9437 58.6439 21.7977C58.837 21.6754 59.0444 21.5578 59.2611 21.4355C59.4778 21.3131 59.6946 21.205 59.916 21.111L60.3165 20.9651C60.4861 20.9181 60.5757 20.8286 60.5898 20.6923C60.6039 20.5606 60.6087 20.4335 60.6087 20.3112L60.6039 20.3206Z" fill="white"/>
<path d="M92.6715 18.3318C92.6715 18.694 92.6151 19.1975 92.5067 19.8375C92.3982 20.4772 92.2476 21.1642 92.0544 21.9026C91.8612 22.6413 91.6254 23.3894 91.3474 24.1467C91.0695 24.909 90.7539 25.5957 90.4053 26.212C90.0565 26.8284 89.6842 27.3366 89.2981 27.7317C88.9117 28.1314 88.5017 28.3291 88.0636 28.3291C87.7714 28.3291 87.484 28.249 87.1918 28.0939C86.8996 27.9388 86.6217 27.7458 86.3578 27.5154C86.0893 27.2846 85.8444 27.0447 85.6134 26.7909C85.3827 26.5368 85.1847 26.3155 85.0152 26.1228C84.723 25.7839 84.4214 25.4358 84.1103 25.0736C83.7948 24.7113 83.5074 24.3633 83.2388 24.0244C83.022 23.7844 82.876 23.8314 82.8052 24.1703C82.5886 24.8712 82.3106 25.5345 81.9712 26.1603C81.5851 26.8848 81.0336 27.4823 80.3222 27.9527C79.6108 28.4233 78.8427 28.6585 78.0182 28.6585C77.3163 28.6585 76.7131 28.4845 76.2041 28.1314C75.6954 27.7834 75.309 27.2941 75.0451 26.6638C74.2206 24.8289 73.6127 22.9471 73.2124 21.0135C72.8118 19.0799 72.4301 17.1369 72.0673 15.18C72.0673 15.1327 72.0626 15.0715 72.0484 15.0012C72.0343 14.9306 72.0295 14.8694 72.0295 14.8177C72.0295 14.2859 72.2275 13.9189 72.628 13.7121C73.0286 13.5049 73.4431 13.4062 73.8812 13.4062C74.1217 13.4062 74.3997 13.4343 74.7152 13.4955C75.031 13.5567 75.3279 13.6603 75.6058 13.8013C75.8838 13.9473 76.1146 14.1213 76.2939 14.3284C76.4776 14.5353 76.5671 14.7799 76.5671 15.0715V15.2503C76.5435 15.7585 76.5057 16.2573 76.4587 16.756C76.4115 17.2498 76.3878 17.7532 76.3878 18.2614C76.3878 19.2022 76.4729 20.1572 76.6425 21.1216C76.812 22.0861 77.137 22.9941 77.6224 23.8362C77.7166 24.0057 77.8534 24.2173 78.0229 24.4714C78.1925 24.7255 78.3952 24.8526 78.6401 24.8526C78.9039 24.8526 79.1302 24.6972 79.3092 24.3819C79.4882 24.0669 79.6297 23.8128 79.7287 23.6199C80.1384 22.773 80.407 21.9168 80.5248 21.0466C80.6474 20.1761 80.7322 19.2823 80.7792 18.3649C80.8264 17.8803 80.9913 17.4238 81.2693 16.9865C81.5473 16.5536 81.9526 16.3326 82.4849 16.3326C82.8477 16.3326 83.1821 16.4783 83.4837 16.7652C83.7853 17.0571 84.0586 17.4052 84.2988 17.8144C84.5392 18.2236 84.7511 18.6471 84.9351 19.0847C85.1141 19.5175 85.2695 19.8798 85.3874 20.1714C85.4816 20.3643 85.637 20.6607 85.8397 21.0605C86.047 21.4605 86.2731 21.8556 86.5274 22.2556C86.782 22.6554 87.0411 23.0035 87.3097 23.3046C87.5735 23.6057 87.8184 23.7564 88.0352 23.7564C88.2284 23.7564 88.3838 23.6293 88.5064 23.3752C88.629 23.1211 88.7232 22.82 88.7986 22.4672C88.8692 22.1191 88.9259 21.7803 88.9634 21.4511C89.0012 21.1264 89.0201 20.8912 89.0201 20.7455C89.0201 20.1667 88.9729 19.5881 88.8739 19.0046C88.7749 18.426 88.728 17.8472 88.728 17.2639C88.728 16.8077 88.8739 16.4594 89.1613 16.2336C89.4535 16.0032 89.8021 15.8903 90.2121 15.8903C90.8904 15.8903 91.47 16.1208 91.9554 16.577C92.4408 17.0382 92.6809 17.6167 92.6809 18.3179L92.6715 18.3318Z" fill="white"/>
<path d="M109.576 26.554C109.576 27.1092 109.298 27.4478 108.742 27.5702L106.674 27.9702C106.019 28.1159 105.369 28.2618 104.714 28.4028C104.059 28.544 103.409 28.6805 102.754 28.8029C102.075 28.9486 101.406 29.0617 100.742 29.1462C100.078 29.231 99.404 29.2733 98.7301 29.2733H98.0235C97.7925 29.2733 97.557 29.2496 97.3166 29.2027C96.6147 29.104 96.1009 28.8029 95.776 28.2947C95.4507 27.7867 95.2859 27.2221 95.2859 26.5916C95.2859 25.7967 95.5027 25.0814 95.9408 24.4559C96.7136 23.2468 97.524 22.0847 98.3721 20.9601C99.2202 19.8359 99.9552 18.6221 100.587 17.319C100.634 17.1967 100.69 17.0649 100.751 16.919C100.813 16.7733 100.841 16.6415 100.841 16.5192C100.841 16.3499 100.756 16.2651 100.587 16.2651C100.393 16.2651 100.195 16.3215 99.9883 16.4297C99.7809 16.5381 99.5688 16.6604 99.352 16.7919C99.1355 16.9237 98.9186 17.046 98.6971 17.1542C98.4805 17.2626 98.2495 17.319 98.0093 17.319C97.7689 17.319 97.5145 17.2579 97.246 17.1355C96.9774 17.0132 96.7325 16.8625 96.5015 16.6838C96.2708 16.5003 96.0776 16.2934 95.9219 16.0488C95.7665 15.8089 95.6865 15.5547 95.6865 15.2865C95.6865 14.9478 95.7949 14.6749 96.0114 14.4727C96.2283 14.2656 96.4685 14.1057 96.7373 13.9834C97.4862 13.6212 98.2731 13.3576 99.0929 13.1883C99.9127 13.019 100.714 12.8402 101.486 12.6426C101.802 12.572 102.156 12.4638 102.556 12.3179C102.957 12.1722 103.301 12.1016 103.588 12.1016C104.12 12.1016 104.502 12.3087 104.728 12.7179C104.959 13.1271 105.072 13.5647 105.072 14.021C105.072 14.5998 104.926 15.2584 104.639 15.9971C104.347 16.7355 103.984 17.493 103.55 18.2787C103.117 19.0644 102.65 19.8359 102.156 20.5979C101.661 21.3602 101.194 22.0658 100.761 22.715C100.327 23.3691 99.9647 23.9288 99.6725 24.3994C99.3804 24.8698 99.2391 25.1898 99.2391 25.3591C99.2391 25.4061 99.2625 25.4578 99.3098 25.5048C99.3567 25.5521 99.5405 25.5754 99.8563 25.5754C100.511 25.5754 101.157 25.5143 101.797 25.3967C102.438 25.2743 103.074 25.1378 103.701 24.978C104.328 24.8228 104.964 24.6769 105.605 24.5451C106.245 24.4133 106.891 24.3241 107.546 24.2724H107.725C107.965 24.2724 108.201 24.343 108.432 24.4887C108.662 24.6346 108.86 24.8228 109.03 25.0486C109.199 25.2791 109.331 25.5237 109.43 25.792C109.529 26.06 109.576 26.3094 109.576 26.554Z" fill="white"/>
<path d="M115.711 8.58765C115.711 8.97327 115.542 9.33551 115.203 9.6744C114.864 10.013 114.515 10.2201 114.152 10.2908C113.813 10.3611 113.488 10.3989 113.172 10.3989C112.376 10.3989 111.65 10.1823 110.995 9.74501C110.34 9.31215 109.808 8.74279 109.398 8.04191C109.228 7.80199 109.143 7.54789 109.143 7.27961C109.143 6.82339 109.337 6.48949 109.723 6.28238C110.109 6.07526 110.51 5.97656 110.92 5.97656C111.236 5.97656 111.659 6.04245 112.192 6.17422C112.724 6.306 113.247 6.48948 113.77 6.71523C114.289 6.94571 114.746 7.21845 115.132 7.52899C115.519 7.84425 115.711 8.19233 115.711 8.5782V8.58765ZM117.125 26.4085C117.125 26.6484 117.035 26.8556 116.852 27.0249C116.673 27.1942 116.451 27.326 116.197 27.4247C115.942 27.5236 115.683 27.5942 115.415 27.6412C115.146 27.6882 114.92 27.7118 114.727 27.7118C114.458 27.7118 114.194 27.674 113.931 27.6034C113.662 27.5331 113.436 27.3966 113.243 27.2036C112.687 26.6251 112.215 25.9617 111.829 25.2089C111.443 24.4608 111.226 23.6751 111.174 22.8566C111.127 21.9392 111.094 21.0218 111.085 20.1043C111.07 19.1871 111.066 18.2697 111.066 17.3523V14.8871C111.066 14.4776 111.174 14.1579 111.391 13.9274C111.608 13.6967 111.923 13.5838 112.333 13.5838C112.625 13.5838 112.913 13.645 113.205 13.7673C113.497 13.8896 113.761 14.045 114.001 14.2377C114.241 14.4306 114.435 14.6611 114.581 14.9247C114.727 15.1882 114.797 15.4798 114.797 15.7951C114.797 16.5902 114.717 17.3851 114.562 18.166C114.406 18.9517 114.326 19.7282 114.326 20.5044C114.326 21.3746 114.472 22.1227 114.76 22.7485C115.047 23.374 115.372 23.9198 115.721 24.3762C116.07 24.8372 116.39 25.2278 116.682 25.5522C116.974 25.877 117.116 26.1639 117.116 26.4038L117.125 26.4085Z" fill="white"/>
<path d="M136.094 20.7535C136.094 21.332 135.995 21.9484 135.802 22.6023C135.463 23.642 135.006 24.5266 134.422 25.2651C133.842 26.0037 133.168 26.6343 132.41 27.1658C131.646 27.6974 130.827 28.1539 129.941 28.5442C129.06 28.9301 128.146 29.3065 127.203 29.6688C126.647 29.9087 126.016 30.031 125.319 30.031C125.05 30.031 124.786 30.0074 124.522 29.9604C124.254 29.9134 124.013 29.8286 123.797 29.7063C123.58 29.584 123.406 29.4288 123.269 29.2359C123.137 29.043 123.071 28.7889 123.071 28.4736C123.071 28.2573 123.085 28.0974 123.109 28.0032C123.179 27.6879 123.255 27.3257 123.325 26.9165C123.396 26.5072 123.509 26.1308 123.651 25.7922C123.797 25.4533 123.999 25.1664 124.268 24.9217C124.532 24.6818 124.885 24.5595 125.319 24.5595C125.681 24.5595 125.945 24.6582 126.115 24.8511C126.285 25.044 126.407 25.2559 126.478 25.4864C126.548 25.7168 126.605 25.9284 126.643 26.1213C126.68 26.3143 126.77 26.413 126.916 26.413C126.963 26.413 127.062 26.3896 127.208 26.3426C127.717 26.1261 128.226 25.9098 128.73 25.6885C129.239 25.4722 129.715 25.2228 130.162 24.9453C130.61 24.6676 131.015 24.3337 131.378 23.9478C131.741 23.5622 132.042 23.0777 132.282 22.4988C132.405 22.2353 132.499 21.9625 132.575 21.6851C132.645 21.4074 132.683 21.1346 132.683 20.8711C132.683 20.4852 132.575 20.1466 132.358 19.8549C132.141 19.5633 131.868 19.3281 131.543 19.1493C131.218 18.9703 130.859 18.8294 130.473 18.7351C130.087 18.6411 129.733 18.5894 129.423 18.5894C128.791 18.5894 128.193 18.7587 127.627 19.0974C127.057 19.4363 126.652 19.9208 126.412 20.5464C126.266 20.9559 126.143 21.3276 126.049 21.652C125.95 21.9767 125.841 22.2873 125.724 22.5742C125.601 22.8658 125.446 23.1527 125.253 23.4446C125.06 23.7363 124.791 24.0468 124.456 24.3854C124.188 24.6254 123.886 24.8183 123.547 24.964C123.208 25.1099 122.868 25.1805 122.529 25.1805C122.02 25.1805 121.639 25.0251 121.384 24.7101C121.13 24.3949 121.003 23.9996 121.003 23.515C121.003 23.0304 121.026 22.5695 121.073 22.1224C121.12 21.6756 121.144 21.2097 121.144 20.7299C121.144 19.9114 121.064 19.1021 120.908 18.3025C120.753 17.5074 120.564 16.7217 120.348 15.95C120.202 15.3951 120.065 14.9105 119.928 14.501C119.796 14.0918 119.632 13.7106 119.438 13.3578C119.245 13.0097 119.014 12.6616 118.751 12.3275C118.482 11.9889 118.147 11.6172 117.733 11.2032C117.323 10.841 117.115 10.4081 117.115 9.89989C117.115 9.63661 117.182 9.34497 117.313 9.0297C117.445 8.71444 117.629 8.43225 117.86 8.17815C118.091 7.92405 118.345 7.71248 118.623 7.54291C118.901 7.37359 119.184 7.28906 119.476 7.28906C119.792 7.28906 120.056 7.42058 120.272 7.68885C120.442 7.90515 120.607 8.13589 120.762 8.37582C120.918 8.61574 121.069 8.86039 121.215 9.10032C121.87 10.1634 122.449 11.2549 122.958 12.3792C123.467 13.5038 123.853 14.6797 124.117 15.9124C124.141 16.0348 124.178 16.1666 124.226 16.3122C124.273 16.4582 124.372 16.5288 124.518 16.5288C124.617 16.5288 124.796 16.4207 125.064 16.2041C125.328 15.9878 125.667 15.7526 126.082 15.4985C126.492 15.2444 126.972 15.0092 127.514 14.7929C128.061 14.5763 128.659 14.4682 129.309 14.4682C130.106 14.4682 130.883 14.6375 131.632 14.9764C132.235 15.2444 132.81 15.5644 133.357 15.9361C133.903 16.3122 134.374 16.7404 134.77 17.2202C135.171 17.7048 135.491 18.2414 135.731 18.8341C135.972 19.4268 136.094 20.0712 136.094 20.7724V20.7535Z" fill="white"/>
<path d="M143.897 18.0368C143.897 18.9542 143.874 19.8622 143.827 20.756C143.78 21.6498 143.728 22.5578 143.681 23.4752C143.633 23.9598 143.61 24.4349 143.61 24.9053C143.61 25.376 143.586 25.8417 143.539 26.2979C143.492 26.6601 143.351 26.919 143.125 27.0788C142.894 27.2342 142.611 27.314 142.272 27.314C141.838 27.314 141.438 27.192 141.075 26.9518C140.712 26.7119 140.472 26.3732 140.349 25.9356C140.203 25.3805 140.1 24.7972 140.043 24.1808C139.982 23.5645 139.954 22.967 139.954 22.3885C139.954 21.4004 140.001 20.4218 140.1 19.4527C140.194 18.4883 140.246 17.5099 140.246 16.5171C140.246 15.6939 140.175 14.8282 140.029 13.9108C139.883 12.9934 139.704 12.0714 139.482 11.1398C139.266 10.2082 139.021 9.30024 138.757 8.40642C138.488 7.51261 138.239 6.67996 137.994 5.90821C137.923 5.7389 137.885 5.56014 137.885 5.36248C137.885 5.04748 137.975 4.78392 138.158 4.56762C138.342 4.35106 138.564 4.16758 138.828 4.02662C139.091 3.88067 139.379 3.77251 139.68 3.7019C139.982 3.63128 140.265 3.59375 140.533 3.59375C141.019 3.59375 141.447 3.69245 141.819 3.88539C142.192 4.07832 142.404 4.45448 142.456 5.00967C142.649 6.60462 142.884 8.17595 143.162 9.71892C143.44 11.2669 143.638 12.8335 143.761 14.4284C143.808 15.0587 143.845 15.6656 143.869 16.2583C143.893 16.8513 143.907 17.4488 143.907 18.0509L143.897 18.0368Z" fill="white"/>
<path d="M164.903 27.1679C164.903 27.6008 164.757 27.9161 164.47 28.109C164.107 28.3723 163.664 28.5983 163.146 28.7771C162.628 28.9558 162.086 29.1015 161.53 29.2099C160.974 29.3181 160.418 29.3979 159.862 29.4451C159.306 29.4921 158.811 29.5155 158.373 29.5155C157.694 29.5155 157.011 29.4732 156.323 29.3887C155.635 29.3039 154.976 29.1532 154.344 28.9369C153.619 28.7206 152.86 28.4429 152.078 28.1043C151.291 27.7654 150.57 27.3562 149.92 26.8716C149.265 26.387 148.728 25.8132 148.304 25.1498C147.88 24.4865 147.668 23.7195 147.668 22.8493C147.668 22.6564 147.673 22.4823 147.687 22.3222C147.701 22.167 147.715 22.0025 147.743 21.8332C147.89 20.9391 148.12 20.1534 148.431 19.4759C148.747 18.7986 149.143 18.1918 149.628 17.646C150.113 17.1003 150.66 16.6015 151.277 16.1406C151.894 15.6841 152.563 15.2231 153.289 14.7619C154.161 14.207 155.075 13.7316 156.026 13.3318C156.983 12.932 157.991 12.7344 159.056 12.7344C159.589 12.7344 160.149 12.805 160.743 12.9507C161.337 13.0966 161.878 13.3129 162.378 13.6048C162.872 13.8965 163.283 14.2682 163.612 14.7291C163.937 15.1901 164.102 15.7311 164.102 16.3569C164.102 16.8651 163.994 17.3496 163.777 17.8059C163.561 18.2668 163.283 18.6621 162.943 19.0008C162.411 19.5326 161.864 19.9371 161.313 20.2146C160.762 20.4923 160.187 20.7275 159.607 20.9204C159.028 21.1131 158.429 21.2874 157.812 21.4473C157.195 21.6024 156.573 21.8284 155.942 22.1153C155.48 22.3083 154.985 22.4776 154.453 22.6233C153.92 22.7692 153.411 22.8398 152.931 22.8398C152.662 22.8398 152.403 22.8115 152.149 22.7503C151.894 22.6892 151.673 22.5621 151.48 22.3694C151.287 22.1765 151.188 22.2235 151.188 22.5151C151.188 23.0703 151.362 23.5454 151.715 23.9455C152.069 24.3453 152.488 24.6747 152.988 24.9427C153.482 25.211 154.015 25.4273 154.585 25.5966C155.155 25.7659 155.654 25.8977 156.092 25.9967C156.648 26.1423 157.2 26.2552 157.742 26.34C158.288 26.4248 158.849 26.4671 159.428 26.4671C160.107 26.4671 160.776 26.4201 161.44 26.3211C162.105 26.2224 162.774 26.1143 163.452 25.9967C163.499 25.9967 163.546 25.9919 163.598 25.9778C163.645 25.9636 163.692 25.9589 163.744 25.9589C164.107 25.9589 164.39 26.0717 164.597 26.3025C164.804 26.5329 164.908 26.8151 164.908 27.154L164.903 27.1679ZM160.55 16.5921C160.55 16.3991 160.493 16.244 160.385 16.1217C160.276 15.9994 160.126 15.9382 159.932 15.9382C159.716 15.9382 159.485 15.9618 159.244 16.0088C159.004 16.0558 158.773 16.1075 158.557 16.1545C157.977 16.2768 157.379 16.4464 156.761 16.6627C156.144 16.879 155.541 17.1331 154.948 17.4247C154.354 17.7166 153.788 18.0458 153.242 18.4222C152.695 18.7987 152.234 19.2032 151.847 19.636C151.607 19.9746 151.715 20.0453 152.172 19.8523C152.775 19.6594 153.383 19.5043 153.986 19.3819C154.589 19.2596 155.207 19.1278 155.838 18.9821C156.055 18.9349 156.422 18.8315 156.945 18.6716C157.464 18.5162 157.991 18.328 158.524 18.1117C159.056 17.8954 159.527 17.6555 159.937 17.3872C160.347 17.1236 160.554 16.8556 160.554 16.5921H160.55Z" fill="white"/>
</g>
</svg>
