<svg width="61" height="60" viewBox="0 0 61 60" fill="none" xmlns="http://www.w3.org/2000/svg">
<g clip-path="url(#clip0_2705_14102)">
<g filter="url(#filter0_dd_2705_14102)">
<path d="M2.64546 17.9251C4.58738 8.56281 10.5625 3.34832 19.8826 1.77307C26.7724 0.608835 33.6647 0.594091 40.5429 1.80576C50.1393 3.49614 55.9082 9.01473 57.746 18.5186C59.1659 25.8635 59.1882 33.2867 57.7237 40.6246C55.7591 49.922 49.6299 55.6611 40.3441 57.2306C33.4544 58.3947 26.5621 58.4095 19.6839 57.1979C10.0875 55.5074 4.29289 49.7133 2.4552 40.2096C0.962893 32.8163 1.10648 25.3461 2.64546 17.925V17.9251Z" fill="black"/>
</g>
<path d="M2.64546 17.9251C4.58738 8.56281 10.5625 3.34832 19.8826 1.77307C26.7724 0.608835 33.6647 0.594091 40.5429 1.80576C50.1393 3.49614 55.9082 9.01473 57.746 18.5186C59.1659 25.8635 59.1882 33.2867 57.7237 40.6246C55.7591 49.922 49.6299 55.6611 40.3441 57.2306C33.4544 58.3947 26.5621 58.4095 19.6839 57.1979C10.0875 55.5074 4.29289 49.7133 2.4552 40.2096C0.962893 32.8163 1.10648 25.3461 2.64546 17.925V17.9251Z" fill="#F8F9F9"/>
<path fill-rule="evenodd" clip-rule="evenodd" d="M31.7619 16.6647C31.5104 14.712 29.8416 13.2031 27.8204 13.2031C25.7552 13.2031 24.0579 14.7784 23.8644 16.7929H23.8461V36.2277H23.8408C23.8443 36.27 23.8461 36.3127 23.8461 36.3559C23.8461 37.2055 23.1572 37.8944 22.3076 37.8944C21.458 37.8944 20.7691 37.2055 20.7691 36.3559C20.7691 36.3127 20.7709 36.27 20.7744 36.2277H20.7691V27.0493C20.7691 24.8544 18.9896 23.0749 16.7948 23.0749C14.5999 23.0749 12.8204 24.8544 12.8204 27.0493C12.8204 27.0922 12.8211 27.1349 12.8225 27.1775H12.8204V28.9723H9.35889V31.4082H14.7427C14.8101 31.4084 14.8769 31.3952 14.9392 31.3695C15.0015 31.3438 15.0581 31.3061 15.1058 31.2585C15.1535 31.2109 15.1913 31.1544 15.2172 31.0922C15.243 31.0299 15.2563 30.9632 15.2563 30.8958V27.1775H15.2616C15.2581 27.1348 15.2563 27.0921 15.2563 27.0493C15.2563 26.1997 15.9452 25.5108 16.7948 25.5108C17.6444 25.5108 18.3332 26.1997 18.3332 27.0493C18.3332 27.0925 18.3314 27.1352 18.328 27.1775H18.3332V36.4082H18.3336C18.3616 38.5791 20.13 40.3303 22.3076 40.3303C24.5025 40.3303 26.282 38.5508 26.282 36.3559C26.282 36.2658 26.279 36.1764 26.273 36.0877H26.282V17.3057H26.2872C26.2837 17.263 26.2819 17.2203 26.282 17.1775C26.282 16.3279 26.9708 15.639 27.8204 15.639C28.67 15.639 29.3589 16.3279 29.3589 17.1775C29.3589 17.2207 29.3571 17.2634 29.3536 17.3057H29.3589V45.7672H31.7948V16.6647H31.7619ZM42.3036 33.4595C42.2091 35.5707 40.4677 37.2534 38.3332 37.2534C36.1384 37.2534 34.3589 35.4739 34.3589 33.279C34.3589 33.2536 34.3591 33.2284 34.3596 33.2031H34.3589V18.3313H36.7948V33.1508H36.8C36.7966 33.1931 36.7948 33.2358 36.7948 33.279C36.7948 34.1286 37.4836 34.8175 38.3332 34.8175C39.1828 34.8175 39.8717 34.1286 39.8717 33.279C39.8717 33.2358 39.8699 33.1931 39.8664 33.1508H39.8717V26.7929H39.8798C40.0119 24.7174 41.7372 23.0749 43.846 23.0749C45.9981 23.0749 47.7507 24.7854 47.8184 26.9211H47.8204V28.2031H50.8973V30.639H45.8981C45.8307 30.639 45.7639 30.6258 45.7016 30.6C45.6393 30.5743 45.5827 30.5365 45.535 30.4888C45.4873 30.4412 45.4495 30.3846 45.4237 30.3224C45.3979 30.2601 45.3845 30.1933 45.3845 30.1259V27.1775H45.3792C45.3827 27.1352 45.3845 27.0925 45.3845 27.0493C45.3845 26.1997 44.6957 25.5108 43.846 25.5108C42.9964 25.5108 42.3076 26.1997 42.3076 27.0493C42.3076 27.0925 42.3094 27.1352 42.3128 27.1775H42.3076V33.4595H42.3036Z" fill="#FF5439"/>
</g>
<defs>
<filter id="filter0_dd_2705_14102" x="-9.58984" y="-6.10156" width="79.4062" height="79.2031" filterUnits="userSpaceOnUse" color-interpolation-filters="sRGB">
<feFlood flood-opacity="0" result="BackgroundImageFix"/>
<feColorMatrix in="SourceAlpha" type="matrix" values="0 0 0 0 0 0 0 0 0 0 0 0 0 0 0 0 0 0 127 0" result="hardAlpha"/>
<feOffset dy="5"/>
<feGaussianBlur stdDeviation="4"/>
<feColorMatrix type="matrix" values="0 0 0 0 0 0 0 0 0 0 0 0 0 0 0 0 0 0 0.078125 0"/>
<feBlend mode="normal" in2="BackgroundImageFix" result="effect1_dropShadow_2705_14102"/>
<feColorMatrix in="SourceAlpha" type="matrix" values="0 0 0 0 0 0 0 0 0 0 0 0 0 0 0 0 0 0 127 0" result="hardAlpha"/>
<feOffset dy="4"/>
<feGaussianBlur stdDeviation="5.5"/>
<feColorMatrix type="matrix" values="0 0 0 0 0 0 0 0 0 0 0 0 0 0 0 0 0 0 0.210824 0"/>
<feBlend mode="normal" in2="effect1_dropShadow_2705_14102" result="effect2_dropShadow_2705_14102"/>
<feBlend mode="normal" in="SourceGraphic" in2="effect2_dropShadow_2705_14102" result="shape"/>
</filter>
<clipPath id="clip0_2705_14102">
<rect width="60.2564" height="60" fill="white"/>
</clipPath>
</defs>
</svg>
