<svg xmlns="http://www.w3.org/2000/svg" xmlns:xlink="http://www.w3.org/1999/xlink" viewBox="0 0 656 264" width="656" height="264" preserveAspectRatio="xMidYMid meet" style="width: 100%; height: 100%; transform: translate3d(0px, 0px, 0px); content-visibility: visible;"><defs><clipPath id="__lottie_element_43"><rect width="656" height="264" x="0" y="0"></rect></clipPath><clipPath id="__lottie_element_45"><path fill="#ffffff" clip-rule="nonzero" d=" M58.125,-116 C58.125,-116 9.5,-116 9.5,-116 C9.5,-116 9.5,109.1760025024414 9.5,109.1760025024414 C9.5,109.1760025024414 58.125,109.1760025024414 58.125,109.1760025024414 C58.125,109.1760025024414 58.125,-116 58.125,-116" fill-opacity="1"></path></clipPath><linearGradient id="__lottie_element_47" spreadMethod="pad" gradientUnits="userSpaceOnUse" x1="52.172000885009766" y1="44.097999572753906" x2="25.417999267578125" y2="107.80500030517578"><stop offset="0%" stop-color="rgb(242,122,252)"></stop><stop offset="10%" stop-color="rgb(234,99,246)"></stop><stop offset="20%" stop-color="rgb(226,76,239)"></stop><stop offset="60%" stop-color="rgb(161,61,207)"></stop><stop offset="100%" stop-color="rgb(96,46,174)"></stop></linearGradient><clipPath id="__lottie_element_49"><path fill="#ffffff" clip-rule="nonzero" d=" M58.125,-116 C58.125,-116 9.5,-116 9.5,-116 C9.5,-116 9.5,109.1760025024414 9.5,109.1760025024414 C9.5,109.1760025024414 58.125,109.1760025024414 58.125,109.1760025024414 C58.125,109.1760025024414 58.125,-116 58.125,-116" fill-opacity="1"></path></clipPath><linearGradient id="__lottie_element_51" spreadMethod="pad" gradientUnits="userSpaceOnUse" x1="53.47999954223633" y1="22.25" x2="32.52000045776367" y2="103.89800262451172"><stop offset="0%" stop-color="rgb(242,122,252)"></stop><stop offset="10%" stop-color="rgb(234,99,246)"></stop><stop offset="20%" stop-color="rgb(226,76,239)"></stop><stop offset="60%" stop-color="rgb(161,61,207)"></stop><stop offset="100%" stop-color="rgb(96,46,174)"></stop></linearGradient><clipPath id="__lottie_element_53"><path fill="#ffffff" clip-rule="nonzero" d=" M58.125,-116 C58.125,-116 9.5,-116 9.5,-116 C9.5,-116 9.5,109.1760025024414 9.5,109.1760025024414 C9.5,109.1760025024414 58.125,109.1760025024414 58.125,109.1760025024414 C58.125,109.1760025024414 58.125,-116 58.125,-116" fill-opacity="1"></path></clipPath><linearGradient id="__lottie_element_55" spreadMethod="pad" gradientUnits="userSpaceOnUse" x1="43.292999267578125" y1="-3.0160000324249268" x2="22.93000030517578" y2="88.43800354003906"><stop offset="0%" stop-color="rgb(242,122,252)"></stop><stop offset="10%" stop-color="rgb(234,99,246)"></stop><stop offset="20%" stop-color="rgb(226,76,239)"></stop><stop offset="60%" stop-color="rgb(161,61,207)"></stop><stop offset="100%" stop-color="rgb(96,46,174)"></stop></linearGradient><clipPath id="__lottie_element_57"><path fill="#ffffff" clip-rule="nonzero" d=" M58.125,-116 C58.125,-116 9.5,-116 9.5,-116 C9.5,-116 9.5,109.1760025024414 9.5,109.1760025024414 C9.5,109.1760025024414 58.125,109.1760025024414 58.125,109.1760025024414 C58.125,109.1760025024414 58.125,-116 58.125,-116" fill-opacity="1"></path></clipPath><linearGradient id="__lottie_element_59" spreadMethod="pad" gradientUnits="userSpaceOnUse" x1="55.332000732421875" y1="-53.887001037597656" x2="9.843999862670898" y2="70.60199737548828"><stop offset="0%" stop-color="rgb(242,122,252)"></stop><stop offset="10%" stop-color="rgb(234,99,246)"></stop><stop offset="20%" stop-color="rgb(226,76,239)"></stop><stop offset="60%" stop-color="rgb(161,61,207)"></stop><stop offset="100%" stop-color="rgb(96,46,174)"></stop></linearGradient><clipPath id="__lottie_element_61"><path fill="#ffffff" clip-rule="nonzero" d=" M58.125,-116 C58.125,-116 9.5,-116 9.5,-116 C9.5,-116 9.5,109.1760025024414 9.5,109.1760025024414 C9.5,109.1760025024414 58.125,109.1760025024414 58.125,109.1760025024414 C58.125,109.1760025024414 58.125,-116 58.125,-116" fill-opacity="1"></path></clipPath><linearGradient id="__lottie_element_63" spreadMethod="pad" gradientUnits="userSpaceOnUse" x1="40.566001892089844" y1="-98.55899810791016" x2="0.7580000162124634" y2="14.71500015258789"><stop offset="0%" stop-color="rgb(242,122,252)"></stop><stop offset="10%" stop-color="rgb(234,99,246)"></stop><stop offset="20%" stop-color="rgb(226,76,239)"></stop><stop offset="60%" stop-color="rgb(161,61,207)"></stop><stop offset="100%" stop-color="rgb(96,46,174)"></stop></linearGradient><clipPath id="__lottie_element_65"><path fill="#ffffff" clip-rule="nonzero" d=" M58.125,-116 C58.125,-116 9.5,-116 9.5,-116 C9.5,-116 9.5,109.1760025024414 9.5,109.1760025024414 C9.5,109.1760025024414 58.125,109.1760025024414 58.125,109.1760025024414 C58.125,109.1760025024414 58.125,-116 58.125,-116" fill-opacity="1"></path></clipPath><linearGradient id="__lottie_element_67" spreadMethod="pad" gradientUnits="userSpaceOnUse" x1="51.887001037597656" y1="-83.41000366210938" x2="-36.472999572753906" y2="7.460999965667725"><stop offset="0%" stop-color="rgb(242,122,252)"></stop><stop offset="10%" stop-color="rgb(234,99,246)"></stop><stop offset="20%" stop-color="rgb(226,76,239)"></stop><stop offset="60%" stop-color="rgb(161,61,207)"></stop><stop offset="100%" stop-color="rgb(96,46,174)"></stop></linearGradient><clipPath id="__lottie_element_69"><path fill="#ffffff" clip-rule="nonzero" d=" M58.125,-116 C58.125,-116 9.5,-116 9.5,-116 C9.5,-116 9.5,109.1760025024414 9.5,109.1760025024414 C9.5,109.1760025024414 58.125,109.1760025024414 58.125,109.1760025024414 C58.125,109.1760025024414 58.125,-116 58.125,-116" fill-opacity="1"></path></clipPath><linearGradient id="__lottie_element_71" spreadMethod="pad" gradientUnits="userSpaceOnUse" x1="47.375" y1="-58.21099853515625" x2="17.108999252319336" y2="104.01599884033203"><stop offset="0%" stop-color="rgb(242,122,252)"></stop><stop offset="10%" stop-color="rgb(234,99,246)"></stop><stop offset="20%" stop-color="rgb(226,76,239)"></stop><stop offset="60%" stop-color="rgb(161,61,207)"></stop><stop offset="100%" stop-color="rgb(96,46,174)"></stop></linearGradient><clipPath id="__lottie_element_73"><path fill="#ffffff" clip-rule="nonzero" d=" M58.125,-116 C58.125,-116 9.5,-116 9.5,-116 C9.5,-116 9.5,109.1760025024414 9.5,109.1760025024414 C9.5,109.1760025024414 58.125,109.1760025024414 58.125,109.1760025024414 C58.125,109.1760025024414 58.125,-116 58.125,-116" fill-opacity="1"></path></clipPath><linearGradient id="__lottie_element_75" spreadMethod="pad" gradientUnits="userSpaceOnUse" x1="76.41799926757812" y1="-41.33599853515625" x2="45.097999572753906" y2="92.75399780273438"><stop offset="0%" stop-color="rgb(242,122,252)"></stop><stop offset="10%" stop-color="rgb(234,99,246)"></stop><stop offset="20%" stop-color="rgb(226,76,239)"></stop><stop offset="60%" stop-color="rgb(161,61,207)"></stop><stop offset="100%" stop-color="rgb(96,46,174)"></stop></linearGradient><clipPath id="__lottie_element_77"><path fill="#ffffff" clip-rule="nonzero" d=" M58.125,-116 C58.125,-116 9.5,-116 9.5,-116 C9.5,-116 9.5,109.1760025024414 9.5,109.1760025024414 C9.5,109.1760025024414 58.125,109.1760025024414 58.125,109.1760025024414 C58.125,109.1760025024414 58.125,-116 58.125,-116" fill-opacity="1"></path></clipPath><linearGradient id="__lottie_element_79" spreadMethod="pad" gradientUnits="userSpaceOnUse" x1="47.02299880981445" y1="0.8949999809265137" x2="45.387001037597656" y2="95.61699676513672"><stop offset="0%" stop-color="rgb(242,122,252)"></stop><stop offset="10%" stop-color="rgb(234,99,246)"></stop><stop offset="20%" stop-color="rgb(226,76,239)"></stop><stop offset="60%" stop-color="rgb(161,61,207)"></stop><stop offset="100%" stop-color="rgb(96,46,174)"></stop></linearGradient><clipPath id="__lottie_element_81"><path fill="#ffffff" clip-rule="nonzero" d=" M58.125,-116 C58.125,-116 9.5,-116 9.5,-116 C9.5,-116 9.5,109.1760025024414 9.5,109.1760025024414 C9.5,109.1760025024414 58.125,109.1760025024414 58.125,109.1760025024414 C58.125,109.1760025024414 58.125,-116 58.125,-116" fill-opacity="1"></path></clipPath><linearGradient id="__lottie_element_83" spreadMethod="pad" gradientUnits="userSpaceOnUse" x1="64.1050033569336" y1="26.132999420166016" x2="35.96900177001953" y2="99.98400115966797"><stop offset="0%" stop-color="rgb(242,122,252)"></stop><stop offset="10%" stop-color="rgb(234,99,246)"></stop><stop offset="20%" stop-color="rgb(226,76,239)"></stop><stop offset="60%" stop-color="rgb(161,61,207)"></stop><stop offset="100%" stop-color="rgb(96,46,174)"></stop></linearGradient></defs><g clip-path="url(#__lottie_element_43)"><g clip-path="url(#__lottie_element_45)" transform="matrix(1,0,0,1,5,132)" opacity="1" style="display: block;"><g opacity="1" transform="matrix(1,0,0,1,0,0)"><path stroke="url(#__lottie_element_47)" stroke-linecap="round" stroke-linejoin="round" fill-opacity="0" stroke-opacity="1" stroke-width="48" d=" M34,111 C34,111 34,105.7699966430664 34,97.00199890136719"></path></g></g><g clip-path="url(#__lottie_element_49)" transform="matrix(1,0,0,1,69.11100006103516,132)" opacity="1" style="display: block;"><g opacity="1" transform="matrix(1,0,0,1,0,0)"><path stroke="url(#__lottie_element_51)" stroke-linecap="round" stroke-linejoin="round" fill-opacity="0" stroke-opacity="1" stroke-width="48" d=" M34,111 C34,111 34,98.16699981689453 34,79.00299835205078"></path></g></g><g clip-path="url(#__lottie_element_53)" transform="matrix(1,0,0,1,133.2220001220703,132)" opacity="1" style="display: block;"><g opacity="1" transform="matrix(1,0,0,1,0,0)"><path stroke="url(#__lottie_element_55)" stroke-linecap="round" stroke-linejoin="round" fill-opacity="0" stroke-opacity="1" stroke-width="48" d=" M34,111 C34,111 34,88.70500183105469 34,59.00199890136719"></path></g></g><g clip-path="url(#__lottie_element_57)" transform="matrix(1,0,0,1,197.33299255371094,132)" opacity="1" style="display: block;"><g opacity="1" transform="matrix(1,0,0,1,0,0)"><path stroke="url(#__lottie_element_59)" stroke-linecap="round" stroke-linejoin="round" fill-opacity="0" stroke-opacity="1" stroke-width="48" d=" M34,111 C34,111 34,13.883000373840332 34,-45.00199890136719"></path></g></g><g clip-path="url(#__lottie_element_61)" transform="matrix(1,0,0,1,261.4440002441406,132)" opacity="1" style="display: block;"><g opacity="1" transform="matrix(1,0,0,1,0,0)"><path stroke="url(#__lottie_element_63)" stroke-linecap="round" stroke-linejoin="round" fill-opacity="0" stroke-opacity="1" stroke-width="48" d=" M34,111 C34,111 34,-89 34,-89"></path></g></g><g clip-path="url(#__lottie_element_65)" transform="matrix(1,0,0,1,325.5559997558594,132)" opacity="1" style="display: block;"><g opacity="1" transform="matrix(1,0,0,1,0,0)"><path stroke="url(#__lottie_element_67)" stroke-linecap="round" stroke-linejoin="round" fill-opacity="0" stroke-opacity="1" stroke-width="48" d=" M34,111 C34,111 34,-18.35099983215332 34,-69.00199890136719"></path></g></g><g clip-path="url(#__lottie_element_69)" transform="matrix(1,0,0,1,389.6669921875,132)" opacity="1" style="display: block;"><g opacity="1" transform="matrix(1,0,0,1,0,0)"><path stroke="url(#__lottie_element_71)" stroke-linecap="round" stroke-linejoin="round" fill-opacity="0" stroke-opacity="1" stroke-width="48" d=" M34,111 C34,111 34,26.166000366210938 34,-33"></path></g></g><g clip-path="url(#__lottie_element_73)" transform="matrix(1,0,0,1,453.77801513671875,132)" opacity="1" style="display: block;"><g opacity="1" transform="matrix(1,0,0,1,0,0)"><path stroke="url(#__lottie_element_75)" stroke-linecap="round" stroke-linejoin="round" fill-opacity="0" stroke-opacity="1" stroke-width="48" d=" M34,111 C34,111 34,89.69999694824219 34,61.00199890136719"></path></g></g><g clip-path="url(#__lottie_element_77)" transform="matrix(1,0,0,1,517.8889770507812,132)" opacity="1" style="display: block;"><g opacity="1" transform="matrix(1,0,0,1,0,0)"><path stroke="url(#__lottie_element_79)" stroke-linecap="round" stroke-linejoin="round" fill-opacity="0" stroke-opacity="1" stroke-width="48" d=" M34,111 C34,111 34,99.93099975585938 34,83.0009994506836"></path></g></g><g clip-path="url(#__lottie_element_81)" transform="matrix(1,0,0,1,582,132)" opacity="1" style="display: block;"><g opacity="1" transform="matrix(1,0,0,1,0,0)"><path stroke="url(#__lottie_element_83)" stroke-linecap="round" stroke-linejoin="round" fill-opacity="0" stroke-opacity="1" stroke-width="48" d=" M34,111 C34,111 34,104.96900177001953 34,95.00199890136719"></path></g></g><g transform="matrix(1,0,0,1,328,132)" opacity="1" style="display: block;"><g opacity="1" transform="matrix(1.0003900527954102,0,0,1.0014499425888062,-9.75,0)"><path stroke-linecap="butt" stroke-linejoin="miter" fill-opacity="0" stroke-miterlimit="4" stroke="rgb(255,255,255)" stroke-opacity="0.2" stroke-width="1" d=" M-316.6929931640625,108 C-316.6929931640625,108 336.06201171875,108 336.06201171875,108"></path></g><g opacity="1" transform="matrix(1,0,0,1,-7.875,0.9800000190734863)"><path stroke-linecap="butt" stroke-linejoin="miter" fill-opacity="0" stroke-miterlimit="4" stroke="rgb(255,255,255)" stroke-opacity="0.2" stroke-width="1" d=" M136.31199645996094,-131.375 C136.31199645996094,-131.375 136.31199645996094,106.5 136.31199645996094,106.5"></path></g><g opacity="1" transform="matrix(1,0,0,1,-1,-0.625)"><path stroke-linecap="butt" stroke-linejoin="miter" fill-opacity="0" stroke-miterlimit="4" stroke="rgb(255,255,255)" stroke-opacity="0.2" stroke-width="1" d=" M-127.93800354003906,-131 C-127.93800354003906,-131 -127.93800354003906,107.56199645996094 -127.93800354003906,107.56199645996094"></path></g></g><g transform="matrix(1,0,0,1,16,258)" opacity="1" fill="rgb(201,73,175)" font-size="16" font-family="Helvetica" font-style="normal" font-weight="700" aria-label="$" style="display: block;"><g stroke-linecap="butt" stroke-linejoin="round" stroke-miterlimit="4" transform="matrix(1,0,0,1,0,0)" opacity="1" style="display: inherit;"><g><g transform="matrix(1,0,0,1,0,0)" opacity="1" style="display: block;"><path d=" M3.23,-7.27 C2.9,-7.53 2.73,-7.88 2.73,-8.31 C2.73,-8.71 2.84,-9.03 3.06,-9.26 C3.28,-9.49 3.62,-9.61 4.07,-9.62 C4.07,-9.62 4.07,-6.88 4.07,-6.88 C3.69,-7 3.41,-7.13 3.23,-7.27z M5.74,-4.05 C6.05,-3.79 6.2,-3.43 6.2,-2.98 C6.2,-2.4 6.04,-1.98 5.71,-1.74 C5.52,-1.61 5.22,-1.51 4.81,-1.46 C4.81,-1.46 4.81,-4.52 4.81,-4.52 C5.25,-4.35 5.56,-4.2 5.74,-4.05z M4.07,-4.77 C4.07,-4.77 4.07,-1.44 4.07,-1.44 C3.48,-1.54 3.08,-1.77 2.88,-2.12 C2.74,-2.34 2.64,-2.78 2.57,-3.44 C2.57,-3.44 0.46,-3.44 0.46,-3.44 C0.45,-1.99 0.88,-0.97 1.77,-0.38 C2.28,-0.04 3.04,0.18 4.07,0.3 C4.07,0.3 4.07,1.85 4.07,1.85 C4.07,1.85 4.83,1.85 4.83,1.85 C4.83,1.85 4.83,0.28 4.83,0.28 C5.64,0.22 6.33,0.01 6.92,-0.36 C7.89,-0.95 8.37,-1.91 8.37,-3.22 C8.37,-4.21 8.02,-4.98 7.31,-5.53 C6.89,-5.86 6.05,-6.24 4.81,-6.66 C4.81,-6.66 4.81,-9.64 4.81,-9.64 C5.33,-9.6 5.69,-9.4 5.89,-9.03 C6.01,-8.82 6.08,-8.48 6.12,-8.02 C6.12,-8.02 8.18,-8.02 8.18,-8.02 C8.15,-9.27 7.69,-10.17 6.81,-10.73 C6.33,-11.08 5.66,-11.28 4.81,-11.35 C4.81,-11.35 4.81,-12.41 4.81,-12.41 C4.81,-12.41 4.07,-12.41 4.07,-12.41 C4.07,-12.41 4.07,-11.37 4.07,-11.37 C3.54,-11.33 3.14,-11.26 2.86,-11.17 C2.41,-11.03 1.99,-10.78 1.62,-10.41 C1.34,-10.12 1.12,-9.78 0.96,-9.38 C0.8,-8.99 0.72,-8.55 0.72,-8.06 C0.72,-7.33 0.92,-6.7 1.33,-6.18 C1.74,-5.66 2.44,-5.25 3.44,-4.96 C3.44,-4.96 4.07,-4.77 4.07,-4.77z"></path><g opacity="1" transform="matrix(0.1599999964237213,0,0,0.1599999964237213,0,0)"></g></g></g></g></g><g transform="matrix(1,0,0,1,200,258)" opacity="1" fill="rgb(201,73,175)" font-size="16" font-family="Helvetica" font-style="normal" font-weight="700" aria-label="$" style="display: block;"><g stroke-linecap="butt" stroke-linejoin="round" stroke-miterlimit="4" transform="matrix(1,0,0,1,0,0)" opacity="1" style="display: inherit;"><g><g transform="matrix(1,0,0,1,0,0)" opacity="1" style="display: block;"><path d=" M3.23,-7.27 C2.9,-7.53 2.73,-7.88 2.73,-8.31 C2.73,-8.71 2.84,-9.03 3.06,-9.26 C3.28,-9.49 3.62,-9.61 4.07,-9.62 C4.07,-9.62 4.07,-6.88 4.07,-6.88 C3.69,-7 3.41,-7.13 3.23,-7.27z M5.74,-4.05 C6.05,-3.79 6.2,-3.43 6.2,-2.98 C6.2,-2.4 6.04,-1.98 5.71,-1.74 C5.52,-1.61 5.22,-1.51 4.81,-1.46 C4.81,-1.46 4.81,-4.52 4.81,-4.52 C5.25,-4.35 5.56,-4.2 5.74,-4.05z M4.07,-4.77 C4.07,-4.77 4.07,-1.44 4.07,-1.44 C3.48,-1.54 3.08,-1.77 2.88,-2.12 C2.74,-2.34 2.64,-2.78 2.57,-3.44 C2.57,-3.44 0.46,-3.44 0.46,-3.44 C0.45,-1.99 0.88,-0.97 1.77,-0.38 C2.28,-0.04 3.04,0.18 4.07,0.3 C4.07,0.3 4.07,1.85 4.07,1.85 C4.07,1.85 4.83,1.85 4.83,1.85 C4.83,1.85 4.83,0.28 4.83,0.28 C5.64,0.22 6.33,0.01 6.92,-0.36 C7.89,-0.95 8.37,-1.91 8.37,-3.22 C8.37,-4.21 8.02,-4.98 7.31,-5.53 C6.89,-5.86 6.05,-6.24 4.81,-6.66 C4.81,-6.66 4.81,-9.64 4.81,-9.64 C5.33,-9.6 5.69,-9.4 5.89,-9.03 C6.01,-8.82 6.08,-8.48 6.12,-8.02 C6.12,-8.02 8.18,-8.02 8.18,-8.02 C8.15,-9.27 7.69,-10.17 6.81,-10.73 C6.33,-11.08 5.66,-11.28 4.81,-11.35 C4.81,-11.35 4.81,-12.41 4.81,-12.41 C4.81,-12.41 4.07,-12.41 4.07,-12.41 C4.07,-12.41 4.07,-11.37 4.07,-11.37 C3.54,-11.33 3.14,-11.26 2.86,-11.17 C2.41,-11.03 1.99,-10.78 1.62,-10.41 C1.34,-10.12 1.12,-9.78 0.96,-9.38 C0.8,-8.99 0.72,-8.55 0.72,-8.06 C0.72,-7.33 0.92,-6.7 1.33,-6.18 C1.74,-5.66 2.44,-5.25 3.44,-4.96 C3.44,-4.96 4.07,-4.77 4.07,-4.77z"></path><g opacity="1" transform="matrix(0.1599999964237213,0,0,0.1599999964237213,0,0)"></g></g></g></g></g><g transform="matrix(1,0,0,1,403,258)" opacity="1" fill="rgb(201,73,175)" font-size="16" font-family="Helvetica" font-style="normal" font-weight="700" aria-label="$" style="display: block;"><g stroke-linecap="butt" stroke-linejoin="round" stroke-miterlimit="4" transform="matrix(1,0,0,1,0,0)" opacity="1" style="display: inherit;"><g><g transform="matrix(1,0,0,1,0,0)" opacity="1" style="display: block;"><path d=" M3.23,-7.27 C2.9,-7.53 2.73,-7.88 2.73,-8.31 C2.73,-8.71 2.84,-9.03 3.06,-9.26 C3.28,-9.49 3.62,-9.61 4.07,-9.62 C4.07,-9.62 4.07,-6.88 4.07,-6.88 C3.69,-7 3.41,-7.13 3.23,-7.27z M5.74,-4.05 C6.05,-3.79 6.2,-3.43 6.2,-2.98 C6.2,-2.4 6.04,-1.98 5.71,-1.74 C5.52,-1.61 5.22,-1.51 4.81,-1.46 C4.81,-1.46 4.81,-4.52 4.81,-4.52 C5.25,-4.35 5.56,-4.2 5.74,-4.05z M4.07,-4.77 C4.07,-4.77 4.07,-1.44 4.07,-1.44 C3.48,-1.54 3.08,-1.77 2.88,-2.12 C2.74,-2.34 2.64,-2.78 2.57,-3.44 C2.57,-3.44 0.46,-3.44 0.46,-3.44 C0.45,-1.99 0.88,-0.97 1.77,-0.38 C2.28,-0.04 3.04,0.18 4.07,0.3 C4.07,0.3 4.07,1.85 4.07,1.85 C4.07,1.85 4.83,1.85 4.83,1.85 C4.83,1.85 4.83,0.28 4.83,0.28 C5.64,0.22 6.33,0.01 6.92,-0.36 C7.89,-0.95 8.37,-1.91 8.37,-3.22 C8.37,-4.21 8.02,-4.98 7.31,-5.53 C6.89,-5.86 6.05,-6.24 4.81,-6.66 C4.81,-6.66 4.81,-9.64 4.81,-9.64 C5.33,-9.6 5.69,-9.4 5.89,-9.03 C6.01,-8.82 6.08,-8.48 6.12,-8.02 C6.12,-8.02 8.18,-8.02 8.18,-8.02 C8.15,-9.27 7.69,-10.17 6.81,-10.73 C6.33,-11.08 5.66,-11.28 4.81,-11.35 C4.81,-11.35 4.81,-12.41 4.81,-12.41 C4.81,-12.41 4.07,-12.41 4.07,-12.41 C4.07,-12.41 4.07,-11.37 4.07,-11.37 C3.54,-11.33 3.14,-11.26 2.86,-11.17 C2.41,-11.03 1.99,-10.78 1.62,-10.41 C1.34,-10.12 1.12,-9.78 0.96,-9.38 C0.8,-8.99 0.72,-8.55 0.72,-8.06 C0.72,-7.33 0.92,-6.7 1.33,-6.18 C1.74,-5.66 2.44,-5.25 3.44,-4.96 C3.44,-4.96 4.07,-4.77 4.07,-4.77z"></path><g opacity="1" transform="matrix(0.1599999964237213,0,0,0.1599999964237213,0,0)"></g></g></g></g></g><g transform="matrix(1,0,0,1,599.5,258)" opacity="1" fill="rgb(201,73,175)" font-size="16" font-family="Helvetica" font-style="normal" font-weight="700" aria-label="$" style="display: block;"><g stroke-linecap="butt" stroke-linejoin="round" stroke-miterlimit="4" transform="matrix(1,0,0,1,0,0)" opacity="1" style="display: inherit;"><g><g transform="matrix(1,0,0,1,0,0)" opacity="1" style="display: block;"><path d=" M3.23,-7.27 C2.9,-7.53 2.73,-7.88 2.73,-8.31 C2.73,-8.71 2.84,-9.03 3.06,-9.26 C3.28,-9.49 3.62,-9.61 4.07,-9.62 C4.07,-9.62 4.07,-6.88 4.07,-6.88 C3.69,-7 3.41,-7.13 3.23,-7.27z M5.74,-4.05 C6.05,-3.79 6.2,-3.43 6.2,-2.98 C6.2,-2.4 6.04,-1.98 5.71,-1.74 C5.52,-1.61 5.22,-1.51 4.81,-1.46 C4.81,-1.46 4.81,-4.52 4.81,-4.52 C5.25,-4.35 5.56,-4.2 5.74,-4.05z M4.07,-4.77 C4.07,-4.77 4.07,-1.44 4.07,-1.44 C3.48,-1.54 3.08,-1.77 2.88,-2.12 C2.74,-2.34 2.64,-2.78 2.57,-3.44 C2.57,-3.44 0.46,-3.44 0.46,-3.44 C0.45,-1.99 0.88,-0.97 1.77,-0.38 C2.28,-0.04 3.04,0.18 4.07,0.3 C4.07,0.3 4.07,1.85 4.07,1.85 C4.07,1.85 4.83,1.85 4.83,1.85 C4.83,1.85 4.83,0.28 4.83,0.28 C5.64,0.22 6.33,0.01 6.92,-0.36 C7.89,-0.95 8.37,-1.91 8.37,-3.22 C8.37,-4.21 8.02,-4.98 7.31,-5.53 C6.89,-5.86 6.05,-6.24 4.81,-6.66 C4.81,-6.66 4.81,-9.64 4.81,-9.64 C5.33,-9.6 5.69,-9.4 5.89,-9.03 C6.01,-8.82 6.08,-8.48 6.12,-8.02 C6.12,-8.02 8.18,-8.02 8.18,-8.02 C8.15,-9.27 7.69,-10.17 6.81,-10.73 C6.33,-11.08 5.66,-11.28 4.81,-11.35 C4.81,-11.35 4.81,-12.41 4.81,-12.41 C4.81,-12.41 4.07,-12.41 4.07,-12.41 C4.07,-12.41 4.07,-11.37 4.07,-11.37 C3.54,-11.33 3.14,-11.26 2.86,-11.17 C2.41,-11.03 1.99,-10.78 1.62,-10.41 C1.34,-10.12 1.12,-9.78 0.96,-9.38 C0.8,-8.99 0.72,-8.55 0.72,-8.06 C0.72,-7.33 0.92,-6.7 1.33,-6.18 C1.74,-5.66 2.44,-5.25 3.44,-4.96 C3.44,-4.96 4.07,-4.77 4.07,-4.77z"></path><g opacity="1" transform="matrix(0.1599999964237213,0,0,0.1599999964237213,0,0)"></g></g></g></g></g><g transform="matrix(1,0,0,1,26,258)" opacity="1" fill="rgb(235,235,235)" font-size="16" font-family="Helvetica" font-style="normal" font-weight="700" aria-label="30k" style="display: block;"><g stroke-linecap="butt" stroke-linejoin="round" stroke-miterlimit="4" transform="matrix(1,0,0,1,0,0)" opacity="1" style="display: inherit;"><g><g transform="matrix(1,0,0,1,0,0)" opacity="1" style="display: block;"><path d=" M4.22,-9.57 C4.68,-9.57 5.03,-9.43 5.29,-9.16 C5.54,-8.89 5.66,-8.54 5.66,-8.11 C5.66,-7.44 5.42,-7 4.92,-6.78 C4.64,-6.65 4.13,-6.58 3.41,-6.57 C3.41,-6.57 3.41,-4.98 3.41,-4.98 C4.15,-4.98 4.69,-4.91 5.03,-4.77 C5.64,-4.52 5.94,-4.02 5.94,-3.27 C5.94,-2.71 5.77,-2.28 5.45,-1.98 C5.12,-1.68 4.74,-1.53 4.3,-1.53 C3.59,-1.53 3.1,-1.8 2.83,-2.35 C2.68,-2.65 2.61,-3.02 2.61,-3.48 C2.61,-3.48 0.42,-3.48 0.42,-3.48 C0.46,-2.58 0.64,-1.85 0.97,-1.29 C1.59,-0.24 2.71,0.28 4.31,0.28 C5.61,0.28 6.6,-0.08 7.26,-0.81 C7.93,-1.54 8.26,-2.38 8.26,-3.34 C8.26,-4.25 7.97,-4.97 7.41,-5.49 C7.03,-5.84 6.73,-6.02 6.53,-6.02 C6.8,-6.12 7.06,-6.32 7.31,-6.6 C7.71,-7.06 7.91,-7.62 7.91,-8.29 C7.91,-9.23 7.57,-9.98 6.91,-10.54 C6.25,-11.1 5.37,-11.38 4.29,-11.38 C3.71,-11.38 3.21,-11.31 2.81,-11.17 C2.41,-11.03 2.07,-10.83 1.77,-10.56 C1.38,-10.19 1.1,-9.78 0.91,-9.34 C0.74,-8.83 0.65,-8.3 0.62,-7.73 C0.62,-7.73 2.7,-7.73 2.7,-7.73 C2.69,-8.29 2.81,-8.74 3.06,-9.07 C3.31,-9.4 3.69,-9.57 4.22,-9.57z"></path><g opacity="1" transform="matrix(0.1599999964237213,0,0,0.1599999964237213,0,0)"></g></g></g></g><g stroke-linecap="butt" stroke-linejoin="round" stroke-miterlimit="4" transform="matrix(1,0,0,1,8.899199485778809,0)" opacity="1" style="display: inherit;"><g><g transform="matrix(1,0,0,1,0,0)" opacity="1" style="display: block;"><path d=" M4.41,-1.53 C3.74,-1.53 3.31,-1.88 3.09,-2.57 C2.88,-3.26 2.77,-4.25 2.77,-5.55 C2.77,-6.92 2.88,-7.93 3.09,-8.59 C3.31,-9.24 3.74,-9.57 4.41,-9.57 C5.07,-9.57 5.5,-9.24 5.71,-8.59 C5.91,-7.93 6.02,-6.92 6.02,-5.55 C6.02,-4.25 5.91,-3.26 5.71,-2.57 C5.5,-1.88 5.07,-1.53 4.41,-1.53z M7.44,-1.23 C8.02,-2.24 8.31,-3.68 8.31,-5.55 C8.31,-7.42 8.02,-8.87 7.45,-9.88 C6.86,-10.9 5.85,-11.41 4.41,-11.41 C2.96,-11.41 1.95,-10.9 1.37,-9.88 C0.79,-8.87 0.5,-7.42 0.5,-5.55 C0.5,-3.68 0.79,-2.24 1.37,-1.23 C1.95,-0.22 2.96,0.28 4.41,0.28 C5.85,0.28 6.86,-0.22 7.44,-1.23z"></path><g opacity="1" transform="matrix(0.1599999964237213,0,0,0.1599999964237213,0,0)"></g></g></g></g><g stroke-linecap="butt" stroke-linejoin="round" stroke-miterlimit="4" transform="matrix(1,0,0,1,17.798398971557617,0)" opacity="1" style="display: inherit;"><g><g transform="matrix(1,0,0,1,0,0)" opacity="1" style="display: block;"><path d=" M5.76,-5.22 C5.76,-5.22 8.73,-8.48 8.73,-8.48 C8.73,-8.48 5.98,-8.48 5.98,-8.48 C5.98,-8.48 3.2,-5.27 3.2,-5.27 C3.2,-5.27 3.2,-11.48 3.2,-11.48 C3.2,-11.48 1.02,-11.48 1.02,-11.48 C1.02,-11.48 1.02,0 1.02,0 C1.02,0 3.2,0 3.2,0 C3.2,0 3.2,-2.68 3.2,-2.68 C3.2,-2.68 4.12,-3.64 4.12,-3.64 C4.12,-3.64 6.16,0 6.16,0 C6.16,0 8.85,0 8.85,0 C8.85,0 5.76,-5.22 5.76,-5.22z"></path><g opacity="1" transform="matrix(0.1599999964237213,0,0,0.1599999964237213,0,0)"></g></g></g></g></g><g transform="matrix(1,0,0,1,210,258)" opacity="1" fill="rgb(235,235,235)" font-size="16" font-family="Helvetica" font-style="normal" font-weight="700" aria-label="100k" style="display: block;"><g stroke-linecap="butt" stroke-linejoin="round" stroke-miterlimit="4" transform="matrix(1,0,0,1,0,0)" opacity="1" style="display: inherit;"><g><g transform="matrix(1,0,0,1,0,0)" opacity="1" style="display: block;"><path d=" M6.05,-11.33 C6.05,-11.33 4.2,-11.33 4.2,-11.33 C4.2,-11.23 4.17,-11.08 4.12,-10.88 C4.02,-10.54 3.87,-10.27 3.68,-10.06 C3.4,-9.77 3.03,-9.57 2.59,-9.47 C2.3,-9.41 1.81,-9.36 1.11,-9.33 C1.11,-9.33 1.11,-7.81 1.11,-7.81 C1.11,-7.81 3.77,-7.81 3.77,-7.81 C3.77,-7.81 3.77,0 3.77,0 C3.77,0 6.05,0 6.05,0 C6.05,0 6.05,-11.33 6.05,-11.33z"></path><g opacity="1" transform="matrix(0.1599999964237213,0,0,0.1599999964237213,0,0)"></g></g></g></g><g stroke-linecap="butt" stroke-linejoin="round" stroke-miterlimit="4" transform="matrix(1,0,0,1,8.02400016784668,0)" opacity="1" style="display: inherit;"><g><g transform="matrix(1,0,0,1,0,0)" opacity="1" style="display: block;"><path d=" M4.41,-1.53 C3.74,-1.53 3.31,-1.88 3.09,-2.57 C2.88,-3.26 2.77,-4.25 2.77,-5.55 C2.77,-6.92 2.88,-7.93 3.09,-8.59 C3.31,-9.24 3.74,-9.57 4.41,-9.57 C5.07,-9.57 5.5,-9.24 5.71,-8.59 C5.91,-7.93 6.02,-6.92 6.02,-5.55 C6.02,-4.25 5.91,-3.26 5.71,-2.57 C5.5,-1.88 5.07,-1.53 4.41,-1.53z M7.44,-1.23 C8.02,-2.24 8.31,-3.68 8.31,-5.55 C8.31,-7.42 8.02,-8.87 7.45,-9.88 C6.86,-10.9 5.85,-11.41 4.41,-11.41 C2.96,-11.41 1.95,-10.9 1.37,-9.88 C0.79,-8.87 0.5,-7.42 0.5,-5.55 C0.5,-3.68 0.79,-2.24 1.37,-1.23 C1.95,-0.22 2.96,0.28 4.41,0.28 C5.85,0.28 6.86,-0.22 7.44,-1.23z"></path><g opacity="1" transform="matrix(0.1599999964237213,0,0,0.1599999964237213,0,0)"></g></g></g></g><g stroke-linecap="butt" stroke-linejoin="round" stroke-miterlimit="4" transform="matrix(1,0,0,1,16.923198699951172,0)" opacity="1" style="display: inherit;"><g><g transform="matrix(1,0,0,1,0,0)" opacity="1" style="display: block;"><path d=" M4.41,-1.53 C3.74,-1.53 3.31,-1.88 3.09,-2.57 C2.88,-3.26 2.77,-4.25 2.77,-5.55 C2.77,-6.92 2.88,-7.93 3.09,-8.59 C3.31,-9.24 3.74,-9.57 4.41,-9.57 C5.07,-9.57 5.5,-9.24 5.71,-8.59 C5.91,-7.93 6.02,-6.92 6.02,-5.55 C6.02,-4.25 5.91,-3.26 5.71,-2.57 C5.5,-1.88 5.07,-1.53 4.41,-1.53z M7.44,-1.23 C8.02,-2.24 8.31,-3.68 8.31,-5.55 C8.31,-7.42 8.02,-8.87 7.45,-9.88 C6.86,-10.9 5.85,-11.41 4.41,-11.41 C2.96,-11.41 1.95,-10.9 1.37,-9.88 C0.79,-8.87 0.5,-7.42 0.5,-5.55 C0.5,-3.68 0.79,-2.24 1.37,-1.23 C1.95,-0.22 2.96,0.28 4.41,0.28 C5.85,0.28 6.86,-0.22 7.44,-1.23z"></path><g opacity="1" transform="matrix(0.1599999964237213,0,0,0.1599999964237213,0,0)"></g></g></g></g><g stroke-linecap="butt" stroke-linejoin="round" stroke-miterlimit="4" transform="matrix(1,0,0,1,25.822399139404297,0)" opacity="1" style="display: inherit;"><g><g transform="matrix(1,0,0,1,0,0)" opacity="1" style="display: block;"><path d=" M5.76,-5.22 C5.76,-5.22 8.73,-8.48 8.73,-8.48 C8.73,-8.48 5.98,-8.48 5.98,-8.48 C5.98,-8.48 3.2,-5.27 3.2,-5.27 C3.2,-5.27 3.2,-11.48 3.2,-11.48 C3.2,-11.48 1.02,-11.48 1.02,-11.48 C1.02,-11.48 1.02,0 1.02,0 C1.02,0 3.2,0 3.2,0 C3.2,0 3.2,-2.68 3.2,-2.68 C3.2,-2.68 4.12,-3.64 4.12,-3.64 C4.12,-3.64 6.16,0 6.16,0 C6.16,0 8.85,0 8.85,0 C8.85,0 5.76,-5.22 5.76,-5.22z"></path><g opacity="1" transform="matrix(0.1599999964237213,0,0,0.1599999964237213,0,0)"></g></g></g></g></g><g transform="matrix(1,0,0,1,413,258)" opacity="1" fill="rgb(235,235,235)" font-size="16" font-family="Helvetica" font-style="normal" font-weight="700" aria-label="500k" style="display: block;"><g stroke-linecap="butt" stroke-linejoin="round" stroke-miterlimit="4" transform="matrix(1,0,0,1,0,0)" opacity="1" style="display: inherit;"><g><g transform="matrix(1,0,0,1,0,0)" opacity="1" style="display: block;"><path d=" M5.53,-5.03 C5.8,-4.63 5.94,-4.14 5.94,-3.56 C5.94,-2.97 5.79,-2.49 5.5,-2.1 C5.21,-1.71 4.79,-1.52 4.24,-1.52 C3.76,-1.52 3.4,-1.65 3.15,-1.91 C2.9,-2.17 2.73,-2.55 2.64,-3.03 C2.64,-3.03 0.42,-3.03 0.42,-3.03 C0.5,-1.97 0.89,-1.15 1.58,-0.57 C2.27,0.01 3.16,0.3 4.23,0.3 C5.57,0.3 6.58,-0.11 7.25,-0.94 C7.92,-1.76 8.26,-2.7 8.26,-3.74 C8.26,-4.95 7.91,-5.86 7.21,-6.49 C6.51,-7.12 5.7,-7.44 4.76,-7.44 C4.29,-7.44 3.9,-7.38 3.58,-7.26 C3.39,-7.18 3.12,-7.04 2.77,-6.81 C2.77,-6.81 3.18,-9.29 3.18,-9.29 C3.18,-9.29 7.81,-9.29 7.81,-9.29 C7.81,-9.29 7.81,-11.18 7.81,-11.18 C7.81,-11.18 1.57,-11.18 1.57,-11.18 C1.57,-11.18 0.77,-4.92 0.77,-4.92 C0.77,-4.92 2.77,-4.83 2.77,-4.83 C2.95,-5.17 3.21,-5.4 3.56,-5.52 C3.76,-5.59 3.99,-5.62 4.27,-5.62 C4.84,-5.62 5.26,-5.43 5.53,-5.03z"></path><g opacity="1" transform="matrix(0.1599999964237213,0,0,0.1599999964237213,0,0)"></g></g></g></g><g stroke-linecap="butt" stroke-linejoin="round" stroke-miterlimit="4" transform="matrix(1,0,0,1,8.899199485778809,0)" opacity="1" style="display: inherit;"><g><g transform="matrix(1,0,0,1,0,0)" opacity="1" style="display: block;"><path d=" M4.41,-1.53 C3.74,-1.53 3.31,-1.88 3.09,-2.57 C2.88,-3.26 2.77,-4.25 2.77,-5.55 C2.77,-6.92 2.88,-7.93 3.09,-8.59 C3.31,-9.24 3.74,-9.57 4.41,-9.57 C5.07,-9.57 5.5,-9.24 5.71,-8.59 C5.91,-7.93 6.02,-6.92 6.02,-5.55 C6.02,-4.25 5.91,-3.26 5.71,-2.57 C5.5,-1.88 5.07,-1.53 4.41,-1.53z M7.44,-1.23 C8.02,-2.24 8.31,-3.68 8.31,-5.55 C8.31,-7.42 8.02,-8.87 7.45,-9.88 C6.86,-10.9 5.85,-11.41 4.41,-11.41 C2.96,-11.41 1.95,-10.9 1.37,-9.88 C0.79,-8.87 0.5,-7.42 0.5,-5.55 C0.5,-3.68 0.79,-2.24 1.37,-1.23 C1.95,-0.22 2.96,0.28 4.41,0.28 C5.85,0.28 6.86,-0.22 7.44,-1.23z"></path><g opacity="1" transform="matrix(0.1599999964237213,0,0,0.1599999964237213,0,0)"></g></g></g></g><g stroke-linecap="butt" stroke-linejoin="round" stroke-miterlimit="4" transform="matrix(1,0,0,1,17.798398971557617,0)" opacity="1" style="display: inherit;"><g><g transform="matrix(1,0,0,1,0,0)" opacity="1" style="display: block;"><path d=" M4.41,-1.53 C3.74,-1.53 3.31,-1.88 3.09,-2.57 C2.88,-3.26 2.77,-4.25 2.77,-5.55 C2.77,-6.92 2.88,-7.93 3.09,-8.59 C3.31,-9.24 3.74,-9.57 4.41,-9.57 C5.07,-9.57 5.5,-9.24 5.71,-8.59 C5.91,-7.93 6.02,-6.92 6.02,-5.55 C6.02,-4.25 5.91,-3.26 5.71,-2.57 C5.5,-1.88 5.07,-1.53 4.41,-1.53z M7.44,-1.23 C8.02,-2.24 8.31,-3.68 8.31,-5.55 C8.31,-7.42 8.02,-8.87 7.45,-9.88 C6.86,-10.9 5.85,-11.41 4.41,-11.41 C2.96,-11.41 1.95,-10.9 1.37,-9.88 C0.79,-8.87 0.5,-7.42 0.5,-5.55 C0.5,-3.68 0.79,-2.24 1.37,-1.23 C1.95,-0.22 2.96,0.28 4.41,0.28 C5.85,0.28 6.86,-0.22 7.44,-1.23z"></path><g opacity="1" transform="matrix(0.1599999964237213,0,0,0.1599999964237213,0,0)"></g></g></g></g><g stroke-linecap="butt" stroke-linejoin="round" stroke-miterlimit="4" transform="matrix(1,0,0,1,26.697599411010742,0)" opacity="1" style="display: inherit;"><g><g transform="matrix(1,0,0,1,0,0)" opacity="1" style="display: block;"><path d=" M5.76,-5.22 C5.76,-5.22 8.73,-8.48 8.73,-8.48 C8.73,-8.48 5.98,-8.48 5.98,-8.48 C5.98,-8.48 3.2,-5.27 3.2,-5.27 C3.2,-5.27 3.2,-11.48 3.2,-11.48 C3.2,-11.48 1.02,-11.48 1.02,-11.48 C1.02,-11.48 1.02,0 1.02,0 C1.02,0 3.2,0 3.2,0 C3.2,0 3.2,-2.68 3.2,-2.68 C3.2,-2.68 4.12,-3.64 4.12,-3.64 C4.12,-3.64 6.16,0 6.16,0 C6.16,0 8.85,0 8.85,0 C8.85,0 5.76,-5.22 5.76,-5.22z"></path><g opacity="1" transform="matrix(0.1599999964237213,0,0,0.1599999964237213,0,0)"></g></g></g></g></g><g transform="matrix(1,0,0,1,609.5,258)" opacity="1" fill="rgb(235,235,235)" font-size="16" font-family="Helvetica" font-style="normal" font-weight="700" aria-label="1m+" style="display: block;"><g stroke-linecap="butt" stroke-linejoin="round" stroke-miterlimit="4" transform="matrix(1,0,0,1,0,0)" opacity="1" style="display: inherit;"><g><g transform="matrix(1,0,0,1,0,0)" opacity="1" style="display: block;"><path d=" M6.05,-11.33 C6.05,-11.33 4.2,-11.33 4.2,-11.33 C4.2,-11.23 4.17,-11.08 4.12,-10.88 C4.02,-10.54 3.87,-10.27 3.68,-10.06 C3.4,-9.77 3.03,-9.57 2.59,-9.47 C2.3,-9.41 1.81,-9.36 1.11,-9.33 C1.11,-9.33 1.11,-7.81 1.11,-7.81 C1.11,-7.81 3.77,-7.81 3.77,-7.81 C3.77,-7.81 3.77,0 3.77,0 C3.77,0 6.05,0 6.05,0 C6.05,0 6.05,-11.33 6.05,-11.33z"></path><g opacity="1" transform="matrix(0.1599999964237213,0,0,0.1599999964237213,0,0)"></g></g></g></g><g stroke-linecap="butt" stroke-linejoin="round" stroke-miterlimit="4" transform="matrix(1,0,0,1,8.02400016784668,0)" opacity="1" style="display: inherit;"><g><g transform="matrix(1,0,0,1,0,0)" opacity="1" style="display: block;"><path d=" M5.98,-5.07 C5.98,-5.07 5.98,0 5.98,0 C5.98,0 8.22,0 8.22,0 C8.22,0 8.22,-5.07 8.22,-5.07 C8.22,-5.45 8.28,-5.78 8.4,-6.05 C8.63,-6.56 9.06,-6.81 9.67,-6.81 C10.2,-6.81 10.57,-6.61 10.77,-6.22 C10.87,-6.01 10.92,-5.74 10.92,-5.42 C10.92,-5.42 10.92,0 10.92,0 C10.92,0 13.2,0 13.2,0 C13.2,0 13.22,-5.37 13.22,-5.37 C13.22,-5.92 13.19,-6.34 13.14,-6.62 C13.06,-7.06 12.9,-7.42 12.66,-7.72 C12.36,-8.08 12.03,-8.34 11.66,-8.48 C11.3,-8.63 10.93,-8.7 10.55,-8.7 C9.99,-8.7 9.48,-8.59 9.02,-8.35 C8.59,-8.12 8.23,-7.75 7.94,-7.25 C7.77,-7.67 7.53,-8.01 7.2,-8.27 C6.8,-8.56 6.28,-8.7 5.62,-8.7 C4.94,-8.7 4.38,-8.54 3.95,-8.2 C3.7,-8.02 3.44,-7.7 3.16,-7.26 C3.16,-7.26 3.16,-8.5 3.16,-8.5 C3.16,-8.5 1,-8.5 1,-8.5 C1,-8.5 1,0 1,0 C1,0 3.26,0 3.26,0 C3.26,0 3.26,-5.12 3.26,-5.12 C3.26,-5.59 3.32,-5.94 3.44,-6.17 C3.66,-6.58 4.08,-6.79 4.72,-6.79 C5.27,-6.79 5.63,-6.58 5.82,-6.17 C5.92,-5.94 5.98,-5.58 5.98,-5.07z"></path><g opacity="1" transform="matrix(0.1599999964237213,0,0,0.1599999964237213,0,0)"></g></g></g></g><g stroke-linecap="butt" stroke-linejoin="round" stroke-miterlimit="4" transform="matrix(1,0,0,1,22.251201629638672,0)" opacity="1" style="display: inherit;"><g><g transform="matrix(1,0,0,1,0,0)" opacity="1" style="display: block;"><path d=" M9.03,-3.22 C9.03,-3.22 9.03,-5.26 9.03,-5.26 C9.03,-5.26 5.83,-5.26 5.83,-5.26 C5.83,-5.26 5.83,-8.46 5.83,-8.46 C5.83,-8.46 3.77,-8.46 3.77,-8.46 C3.77,-8.46 3.77,-5.26 3.77,-5.26 C3.77,-5.26 0.57,-5.26 0.57,-5.26 C0.57,-5.26 0.57,-3.22 0.57,-3.22 C0.57,-3.22 3.77,-3.22 3.77,-3.22 C3.77,-3.22 3.77,0 3.77,0 C3.77,0 5.83,0 5.83,0 C5.83,0 5.83,-3.22 5.83,-3.22 C5.83,-3.22 9.03,-3.22 9.03,-3.22z"></path><g opacity="1" transform="matrix(0.1599999964237213,0,0,0.1599999964237213,0,0)"></g></g></g></g></g><g transform="matrix(1,0,0,1,239.9739990234375,11.125)" opacity="1" fill="rgb(235,235,235)" font-size="15" font-family="Helvetica" font-style="normal" font-weight="700" aria-label="TYPICAL PROJECT SIZE" style="display: block;"><g stroke-linecap="butt" stroke-linejoin="round" stroke-miterlimit="4" transform="matrix(1,0,0,1,0,0)" opacity="1" style="display: inherit;"><g><g transform="matrix(1,0,0,1,0,0)" opacity="1" style="display: block;"><path d=" M0.24,-10.8 C0.24,-10.8 0.24,-8.88 0.24,-8.88 C0.24,-8.88 3.49,-8.88 3.49,-8.88 C3.49,-8.88 3.49,0 3.49,0 C3.49,0 5.76,0 5.76,0 C5.76,0 5.76,-8.88 5.76,-8.88 C5.76,-8.88 8.99,-8.88 8.99,-8.88 C8.99,-8.88 8.99,-10.8 8.99,-10.8 C8.99,-10.8 0.24,-10.8 0.24,-10.8z"></path><g opacity="1" transform="matrix(0.15000000596046448,0,0,0.15000000596046448,0,0)"></g></g></g></g><g stroke-linecap="butt" stroke-linejoin="round" stroke-miterlimit="4" transform="matrix(1,0,0,1,9.161999702453613,0)" opacity="1" style="display: inherit;"><g><g transform="matrix(1,0,0,1,0,0)" opacity="1" style="display: block;"><path d=" M7.3,-10.8 C7.3,-10.8 5.16,-6.09 5.16,-6.09 C5.16,-6.09 2.92,-10.8 2.92,-10.8 C2.92,-10.8 0.26,-10.8 0.26,-10.8 C0.26,-10.8 3.99,-4.06 3.99,-4.06 C3.99,-4.06 3.99,0 3.99,0 C3.99,0 6.25,0 6.25,0 C6.25,0 6.25,-4.06 6.25,-4.06 C6.25,-4.06 9.86,-10.8 9.86,-10.8 C9.86,-10.8 7.3,-10.8 7.3,-10.8z"></path><g opacity="1" transform="matrix(0.15000000596046448,0,0,0.15000000596046448,0,0)"></g></g></g></g><g stroke-linecap="butt" stroke-linejoin="round" stroke-miterlimit="4" transform="matrix(1,0,0,1,19.16699981689453,0)" opacity="1" style="display: inherit;"><g><g transform="matrix(1,0,0,1,0,0)" opacity="1" style="display: block;"><path d=" M5.54,-5.74 C5.54,-5.74 3.44,-5.74 3.44,-5.74 C3.44,-5.74 3.44,-8.92 3.44,-8.92 C3.44,-8.92 5.54,-8.92 5.54,-8.92 C6.07,-8.92 6.48,-8.8 6.78,-8.56 C7.07,-8.32 7.22,-7.92 7.22,-7.36 C7.22,-6.8 7.08,-6.39 6.78,-6.13 C6.48,-5.87 6.07,-5.74 5.54,-5.74z M8.49,-4.67 C9.13,-5.2 9.46,-6.1 9.46,-7.38 C9.46,-8.54 9.13,-9.4 8.49,-9.96 C7.84,-10.52 6.98,-10.8 5.9,-10.8 C5.9,-10.8 1.19,-10.8 1.19,-10.8 C1.19,-10.8 1.19,0 1.19,0 C1.19,0 3.44,0 3.44,0 C3.44,0 3.44,-3.88 3.44,-3.88 C3.44,-3.88 5.73,-3.88 5.73,-3.88 C6.92,-3.88 7.84,-4.15 8.49,-4.67z"></path><g opacity="1" transform="matrix(0.15000000596046448,0,0,0.15000000596046448,0,0)"></g></g></g></g><g stroke-linecap="butt" stroke-linejoin="round" stroke-miterlimit="4" transform="matrix(1,0,0,1,29.172000885009766,0)" opacity="1" style="display: inherit;"><g><g transform="matrix(1,0,0,1,0,0)" opacity="1" style="display: block;"><path d=" M0.97,0 C0.97,0 3.21,0 3.21,0 C3.21,0 3.21,-10.8 3.21,-10.8 C3.21,-10.8 0.97,-10.8 0.97,-10.8 C0.97,-10.8 0.97,0 0.97,0z"></path><g opacity="1" transform="matrix(0.15000000596046448,0,0,0.15000000596046448,0,0)"></g></g></g></g><g stroke-linecap="butt" stroke-linejoin="round" stroke-miterlimit="4" transform="matrix(1,0,0,1,33.3390007019043,0)" opacity="1" style="display: inherit;"><g><g transform="matrix(1,0,0,1,0,0)" opacity="1" style="display: block;"><path d=" M10.25,-3.68 C10.25,-3.68 8.02,-3.68 8.02,-3.68 C7.87,-3.12 7.68,-2.7 7.45,-2.42 C7.03,-1.91 6.43,-1.65 5.64,-1.65 C4.87,-1.65 4.23,-1.95 3.73,-2.55 C3.23,-3.16 2.98,-4.06 2.98,-5.27 C2.98,-6.48 3.22,-7.42 3.69,-8.08 C4.16,-8.74 4.81,-9.07 5.63,-9.07 C6.44,-9.07 7.05,-8.84 7.46,-8.37 C7.69,-8.11 7.87,-7.72 8.02,-7.2 C8.02,-7.2 10.28,-7.2 10.28,-7.2 C10.24,-7.87 9.99,-8.54 9.53,-9.21 C8.69,-10.41 7.36,-11 5.54,-11 C4.19,-11 3.07,-10.56 2.19,-9.67 C1.18,-8.65 0.67,-7.19 0.67,-5.31 C0.67,-3.57 1.12,-2.19 2.01,-1.19 C2.9,-0.2 4.12,0.3 5.67,0.3 C6.92,0.3 7.95,-0.07 8.76,-0.81 C9.56,-1.54 10.06,-2.5 10.25,-3.68z"></path><g opacity="1" transform="matrix(0.15000000596046448,0,0,0.15000000596046448,0,0)"></g></g></g></g><g stroke-linecap="butt" stroke-linejoin="round" stroke-miterlimit="4" transform="matrix(1,0,0,1,44.172000885009766,0)" opacity="1" style="display: inherit;"><g><g transform="matrix(1,0,0,1,0,0)" opacity="1" style="display: block;"><path d=" M4.09,-4.08 C4.09,-4.08 5.49,-8.33 5.49,-8.33 C5.49,-8.33 6.83,-4.08 6.83,-4.08 C6.83,-4.08 4.09,-4.08 4.09,-4.08z M8.16,0 C8.16,0 10.61,0 10.61,0 C10.61,0 6.78,-10.8 6.78,-10.8 C6.78,-10.8 4.23,-10.8 4.23,-10.8 C4.23,-10.8 0.38,0 0.38,0 C0.38,0 2.74,0 2.74,0 C2.74,0 3.49,-2.22 3.49,-2.22 C3.49,-2.22 7.46,-2.22 7.46,-2.22 C7.46,-2.22 8.16,0 8.16,0z"></path><g opacity="1" transform="matrix(0.15000000596046448,0,0,0.15000000596046448,0,0)"></g></g></g></g><g stroke-linecap="butt" stroke-linejoin="round" stroke-miterlimit="4" transform="matrix(1,0,0,1,55.005001068115234,0)" opacity="1" style="display: inherit;"><g><g transform="matrix(1,0,0,1,0,0)" opacity="1" style="display: block;"><path d=" M1.14,0 C1.14,0 8.75,0 8.75,0 C8.75,0 8.75,-1.94 8.75,-1.94 C8.75,-1.94 3.4,-1.94 3.4,-1.94 C3.4,-1.94 3.4,-10.8 3.4,-10.8 C3.4,-10.8 1.14,-10.8 1.14,-10.8 C1.14,-10.8 1.14,0 1.14,0z"></path><g opacity="1" transform="matrix(0.15000000596046448,0,0,0.15000000596046448,0,0)"></g></g></g></g><g stroke-linecap="butt" stroke-linejoin="round" stroke-miterlimit="4" transform="matrix(1,0,0,1,64.16699981689453,0)" opacity="1" style="display: inherit;"><g><g style="display: none;"></g></g></g><g stroke-linecap="butt" stroke-linejoin="round" stroke-miterlimit="4" transform="matrix(1,0,0,1,68.33399963378906,0)" opacity="1" style="display: inherit;"><g><g transform="matrix(1,0,0,1,0,0)" opacity="1" style="display: block;"><path d=" M5.54,-5.74 C5.54,-5.74 3.44,-5.74 3.44,-5.74 C3.44,-5.74 3.44,-8.92 3.44,-8.92 C3.44,-8.92 5.54,-8.92 5.54,-8.92 C6.07,-8.92 6.48,-8.8 6.78,-8.56 C7.07,-8.32 7.22,-7.92 7.22,-7.36 C7.22,-6.8 7.08,-6.39 6.78,-6.13 C6.48,-5.87 6.07,-5.74 5.54,-5.74z M8.49,-4.67 C9.13,-5.2 9.46,-6.1 9.46,-7.38 C9.46,-8.54 9.13,-9.4 8.49,-9.96 C7.84,-10.52 6.98,-10.8 5.9,-10.8 C5.9,-10.8 1.19,-10.8 1.19,-10.8 C1.19,-10.8 1.19,0 1.19,0 C1.19,0 3.44,0 3.44,0 C3.44,0 3.44,-3.88 3.44,-3.88 C3.44,-3.88 5.73,-3.88 5.73,-3.88 C6.92,-3.88 7.84,-4.15 8.49,-4.67z"></path><g opacity="1" transform="matrix(0.15000000596046448,0,0,0.15000000596046448,0,0)"></g></g></g></g><g stroke-linecap="butt" stroke-linejoin="round" stroke-miterlimit="4" transform="matrix(1,0,0,1,78.33899688720703,0)" opacity="1" style="display: inherit;"><g><g transform="matrix(1,0,0,1,0,0)" opacity="1" style="display: block;"><path d=" M5.95,-6.02 C5.95,-6.02 3.4,-6.02 3.4,-6.02 C3.4,-6.02 3.4,-8.92 3.4,-8.92 C3.4,-8.92 6.02,-8.92 6.02,-8.92 C6.51,-8.92 6.87,-8.86 7.12,-8.73 C7.55,-8.51 7.77,-8.07 7.77,-7.41 C7.77,-6.81 7.55,-6.4 7.1,-6.2 C6.84,-6.08 6.46,-6.02 5.95,-6.02z M7.09,-3.89 C7.33,-3.66 7.45,-3.2 7.46,-2.51 C7.46,-2.51 7.48,-1.51 7.48,-1.51 C7.48,-1.19 7.51,-0.88 7.57,-0.58 C7.6,-0.43 7.65,-0.24 7.72,0 C7.72,0 10.2,0 10.2,0 C10.2,0 10.2,-0.27 10.2,-0.27 C9.99,-0.4 9.85,-0.61 9.79,-0.89 C9.75,-1.06 9.73,-1.4 9.73,-1.89 C9.73,-1.89 9.73,-2.61 9.73,-2.61 C9.73,-3.37 9.63,-3.93 9.42,-4.3 C9.21,-4.67 8.86,-4.96 8.36,-5.16 C8.96,-5.36 9.39,-5.71 9.65,-6.21 C9.9,-6.7 10.03,-7.21 10.03,-7.72 C10.03,-8.14 9.97,-8.52 9.83,-8.85 C9.69,-9.19 9.51,-9.49 9.27,-9.76 C8.99,-10.1 8.64,-10.35 8.24,-10.52 C7.83,-10.69 7.25,-10.78 6.49,-10.8 C6.49,-10.8 1.19,-10.8 1.19,-10.8 C1.19,-10.8 1.19,0 1.19,0 C1.19,0 3.4,0 3.4,0 C3.4,0 3.4,-4.23 3.4,-4.23 C3.4,-4.23 5.73,-4.23 5.73,-4.23 C6.39,-4.23 6.84,-4.12 7.09,-3.89z"></path><g opacity="1" transform="matrix(0.15000000596046448,0,0,0.15000000596046448,0,0)"></g></g></g></g><g stroke-linecap="butt" stroke-linejoin="round" stroke-miterlimit="4" transform="matrix(1,0,0,1,89.17200469970703,0)" opacity="1" style="display: inherit;"><g><g transform="matrix(1,0,0,1,0,0)" opacity="1" style="display: block;"><path d=" M5.92,-1.61 C5.02,-1.61 4.31,-1.94 3.78,-2.6 C3.25,-3.26 2.98,-4.2 2.98,-5.41 C2.98,-6.63 3.25,-7.57 3.78,-8.23 C4.31,-8.88 5.02,-9.21 5.92,-9.21 C6.81,-9.21 7.52,-8.88 8.05,-8.22 C8.57,-7.56 8.83,-6.62 8.83,-5.41 C8.83,-4.2 8.57,-3.26 8.05,-2.6 C7.52,-1.94 6.81,-1.61 5.92,-1.61z M9.46,-0.96 C10.54,-1.99 11.09,-3.47 11.09,-5.41 C11.09,-7.39 10.54,-8.87 9.46,-9.87 C8.64,-10.71 7.46,-11.13 5.92,-11.13 C4.37,-11.13 3.2,-10.71 2.38,-9.87 C1.29,-8.87 0.74,-7.39 0.74,-5.41 C0.74,-3.47 1.29,-1.99 2.38,-0.96 C3.2,-0.12 4.37,0.3 5.92,0.3 C7.46,0.3 8.64,-0.12 9.46,-0.96z"></path><g opacity="1" transform="matrix(0.15000000596046448,0,0,0.15000000596046448,0,0)"></g></g></g></g><g stroke-linecap="butt" stroke-linejoin="round" stroke-miterlimit="4" transform="matrix(1,0,0,1,100.83900451660156,0)" opacity="1" style="display: inherit;"><g><g transform="matrix(1,0,0,1,0,0)" opacity="1" style="display: block;"><path d=" M4.84,-2.13 C4.67,-1.76 4.32,-1.57 3.79,-1.57 C3.25,-1.57 2.9,-1.74 2.74,-2.08 C2.57,-2.42 2.48,-3.01 2.46,-3.85 C2.46,-3.85 2.46,-4.09 2.46,-4.09 C2.46,-4.09 0.33,-4.09 0.33,-4.09 C0.33,-4.09 0.33,-3.85 0.33,-3.85 C0.33,-2.58 0.57,-1.57 1.05,-0.84 C1.53,-0.1 2.47,0.26 3.87,0.26 C5.27,0.26 6.24,-0.19 6.77,-1.1 C7.09,-1.64 7.25,-2.36 7.25,-3.28 C7.25,-3.28 7.25,-10.8 7.25,-10.8 C7.25,-10.8 5,-10.8 5,-10.8 C5,-10.8 5,-3.24 5,-3.24 C5,-2.72 4.94,-2.35 4.84,-2.13z"></path><g opacity="1" transform="matrix(0.15000000596046448,0,0,0.15000000596046448,0,0)"></g></g></g></g><g stroke-linecap="butt" stroke-linejoin="round" stroke-miterlimit="4" transform="matrix(1,0,0,1,109.18199920654297,0)" opacity="1" style="display: inherit;"><g><g transform="matrix(1,0,0,1,0,0)" opacity="1" style="display: block;"><path d=" M8.66,-6.59 C8.66,-6.59 3.41,-6.59 3.41,-6.59 C3.41,-6.59 3.41,-8.88 3.41,-8.88 C3.41,-8.88 9.13,-8.88 9.13,-8.88 C9.13,-8.88 9.13,-10.8 9.13,-10.8 C9.13,-10.8 1.21,-10.8 1.21,-10.8 C1.21,-10.8 1.21,0 1.21,0 C1.21,0 9.39,0 9.39,0 C9.39,0 9.39,-1.94 9.39,-1.94 C9.39,-1.94 3.41,-1.94 3.41,-1.94 C3.41,-1.94 3.41,-4.72 3.41,-4.72 C3.41,-4.72 8.66,-4.72 8.66,-4.72 C8.66,-4.72 8.66,-6.59 8.66,-6.59z"></path><g opacity="1" transform="matrix(0.15000000596046448,0,0,0.15000000596046448,0,0)"></g></g></g></g><g stroke-linecap="butt" stroke-linejoin="round" stroke-miterlimit="4" transform="matrix(1,0,0,1,119.18699645996094,0)" opacity="1" style="display: inherit;"><g><g transform="matrix(1,0,0,1,0,0)" opacity="1" style="display: block;"><path d=" M10.25,-3.68 C10.25,-3.68 8.02,-3.68 8.02,-3.68 C7.87,-3.12 7.68,-2.7 7.45,-2.42 C7.03,-1.91 6.43,-1.65 5.64,-1.65 C4.87,-1.65 4.23,-1.95 3.73,-2.55 C3.23,-3.16 2.98,-4.06 2.98,-5.27 C2.98,-6.48 3.22,-7.42 3.69,-8.08 C4.16,-8.74 4.81,-9.07 5.63,-9.07 C6.44,-9.07 7.05,-8.84 7.46,-8.37 C7.69,-8.11 7.87,-7.72 8.02,-7.2 C8.02,-7.2 10.28,-7.2 10.28,-7.2 C10.24,-7.87 9.99,-8.54 9.53,-9.21 C8.69,-10.41 7.36,-11 5.54,-11 C4.19,-11 3.07,-10.56 2.19,-9.67 C1.18,-8.65 0.67,-7.19 0.67,-5.31 C0.67,-3.57 1.12,-2.19 2.01,-1.19 C2.9,-0.2 4.12,0.3 5.67,0.3 C6.92,0.3 7.95,-0.07 8.76,-0.81 C9.56,-1.54 10.06,-2.5 10.25,-3.68z"></path><g opacity="1" transform="matrix(0.15000000596046448,0,0,0.15000000596046448,0,0)"></g></g></g></g><g stroke-linecap="butt" stroke-linejoin="round" stroke-miterlimit="4" transform="matrix(1,0,0,1,130.02000427246094,0)" opacity="1" style="display: inherit;"><g><g transform="matrix(1,0,0,1,0,0)" opacity="1" style="display: block;"><path d=" M0.24,-10.8 C0.24,-10.8 0.24,-8.88 0.24,-8.88 C0.24,-8.88 3.49,-8.88 3.49,-8.88 C3.49,-8.88 3.49,0 3.49,0 C3.49,0 5.76,0 5.76,0 C5.76,0 5.76,-8.88 5.76,-8.88 C5.76,-8.88 8.99,-8.88 8.99,-8.88 C8.99,-8.88 8.99,-10.8 8.99,-10.8 C8.99,-10.8 0.24,-10.8 0.24,-10.8z"></path><g opacity="1" transform="matrix(0.15000000596046448,0,0,0.15000000596046448,0,0)"></g></g></g></g><g stroke-linecap="butt" stroke-linejoin="round" stroke-miterlimit="4" transform="matrix(1,0,0,1,139.18199157714844,0)" opacity="1" style="display: inherit;"><g><g style="display: none;"></g></g></g><g stroke-linecap="butt" stroke-linejoin="round" stroke-miterlimit="4" transform="matrix(1,0,0,1,143.3489990234375,0)" opacity="1" style="display: inherit;"><g><g transform="matrix(1,0,0,1,0,0)" opacity="1" style="display: block;"><path d=" M3.18,-2.23 C2.98,-2.47 2.84,-2.84 2.78,-3.33 C2.78,-3.33 0.62,-3.33 0.62,-3.33 C0.62,-2.21 1.03,-1.33 1.83,-0.68 C2.64,-0.04 3.74,0.28 5.15,0.28 C6.53,0.28 7.59,-0.05 8.35,-0.7 C9.1,-1.35 9.48,-2.17 9.48,-3.16 C9.48,-4.12 9.16,-4.85 8.51,-5.36 C8.1,-5.69 7.48,-5.95 6.67,-6.15 C6.67,-6.15 4.8,-6.59 4.8,-6.59 C4.09,-6.76 3.62,-6.91 3.4,-7.04 C3.06,-7.23 2.89,-7.52 2.89,-7.9 C2.89,-8.32 3.06,-8.65 3.41,-8.88 C3.75,-9.12 4.22,-9.24 4.8,-9.24 C5.32,-9.24 5.76,-9.15 6.11,-8.96 C6.64,-8.69 6.92,-8.23 6.96,-7.58 C6.96,-7.58 9.13,-7.58 9.13,-7.58 C9.09,-8.73 8.67,-9.6 7.86,-10.21 C7.06,-10.81 6.09,-11.11 4.95,-11.11 C3.59,-11.11 2.56,-10.79 1.85,-10.15 C1.15,-9.51 0.8,-8.71 0.8,-7.74 C0.8,-6.68 1.16,-5.9 1.89,-5.41 C2.32,-5.11 3.1,-4.83 4.22,-4.58 C4.22,-4.58 5.36,-4.32 5.36,-4.32 C6.03,-4.17 6.52,-4.01 6.83,-3.82 C7.15,-3.62 7.3,-3.34 7.3,-2.99 C7.3,-2.38 6.99,-1.96 6.36,-1.74 C6.03,-1.62 5.59,-1.56 5.06,-1.56 C4.17,-1.56 3.54,-1.78 3.18,-2.23z"></path><g opacity="1" transform="matrix(0.15000000596046448,0,0,0.15000000596046448,0,0)"></g></g></g></g><g stroke-linecap="butt" stroke-linejoin="round" stroke-miterlimit="4" transform="matrix(1,0,0,1,153.35398864746094,0)" opacity="1" style="display: inherit;"><g><g transform="matrix(1,0,0,1,0,0)" opacity="1" style="display: block;"><path d=" M0.97,0 C0.97,0 3.21,0 3.21,0 C3.21,0 3.21,-10.8 3.21,-10.8 C3.21,-10.8 0.97,-10.8 0.97,-10.8 C0.97,-10.8 0.97,0 0.97,0z"></path><g opacity="1" transform="matrix(0.15000000596046448,0,0,0.15000000596046448,0,0)"></g></g></g></g><g stroke-linecap="butt" stroke-linejoin="round" stroke-miterlimit="4" transform="matrix(1,0,0,1,157.52099609375,0)" opacity="1" style="display: inherit;"><g><g transform="matrix(1,0,0,1,0,0)" opacity="1" style="display: block;"><path d=" M8.78,-1.9 C8.78,-1.9 3.12,-1.9 3.12,-1.9 C3.12,-1.9 8.77,-8.99 8.77,-8.99 C8.77,-8.99 8.77,-10.8 8.77,-10.8 C8.77,-10.8 0.52,-10.8 0.52,-10.8 C0.52,-10.8 0.52,-8.88 0.52,-8.88 C0.52,-8.88 5.95,-8.88 5.95,-8.88 C5.95,-8.88 0.38,-1.9 0.38,-1.9 C0.38,-1.9 0.38,0 0.38,0 C0.38,0 8.78,0 8.78,0 C8.78,0 8.78,-1.9 8.78,-1.9z"></path><g opacity="1" transform="matrix(0.15000000596046448,0,0,0.15000000596046448,0,0)"></g></g></g></g><g stroke-linecap="butt" stroke-linejoin="round" stroke-miterlimit="4" transform="matrix(1,0,0,1,166.68299865722656,0)" opacity="1" style="display: inherit;"><g><g transform="matrix(1,0,0,1,0,0)" opacity="1" style="display: block;"><path d=" M8.66,-6.59 C8.66,-6.59 3.41,-6.59 3.41,-6.59 C3.41,-6.59 3.41,-8.88 3.41,-8.88 C3.41,-8.88 9.13,-8.88 9.13,-8.88 C9.13,-8.88 9.13,-10.8 9.13,-10.8 C9.13,-10.8 1.21,-10.8 1.21,-10.8 C1.21,-10.8 1.21,0 1.21,0 C1.21,0 9.39,0 9.39,0 C9.39,0 9.39,-1.94 9.39,-1.94 C9.39,-1.94 3.41,-1.94 3.41,-1.94 C3.41,-1.94 3.41,-4.72 3.41,-4.72 C3.41,-4.72 8.66,-4.72 8.66,-4.72 C8.66,-4.72 8.66,-6.59 8.66,-6.59z"></path><g opacity="1" transform="matrix(0.15000000596046448,0,0,0.15000000596046448,0,0)"></g></g></g></g></g></g></svg>