<svg width="18" height="21" viewBox="0 0 18 21" fill="none" xmlns="http://www.w3.org/2000/svg">
<path fill-rule="evenodd" clip-rule="evenodd" d="M4.25 9C4.25 7.74022 4.75045 6.53204 5.64124 5.64124C6.53204 4.75045 7.74022 4.25 9 4.25C10.2598 4.25 11.468 4.75045 12.3588 5.64124C13.2496 6.53204 13.75 7.74022 13.75 9C13.75 10.2598 13.2496 11.468 12.3588 12.3588C11.468 13.2496 10.2598 13.75 9 13.75C7.74022 13.75 6.53204 13.2496 5.64124 12.3588C4.75045 11.468 4.25 10.2598 4.25 9ZM9 5.75C8.13805 5.75 7.3114 6.09241 6.7019 6.7019C6.09241 7.3114 5.75 8.13805 5.75 9C5.75 9.86195 6.09241 10.6886 6.7019 11.2981C7.3114 11.9076 8.13805 12.25 9 12.25C9.86195 12.25 10.6886 11.9076 11.2981 11.2981C11.9076 10.6886 12.25 9.86195 12.25 9C12.25 8.13805 11.9076 7.3114 11.2981 6.7019C10.6886 6.09241 9.86195 5.75 9 5.75Z" fill="white"/>
<path fill-rule="evenodd" clip-rule="evenodd" d="M0.523888 7.857C0.694814 5.7838 1.63911 3.85069 3.1693 2.44147C4.69949 1.03226 6.70366 0.249994 8.78389 0.25H9.21589C11.2961 0.249994 13.3003 1.03226 14.8305 2.44147C16.3607 3.85069 17.305 5.7838 17.4759 7.857C17.6661 10.1663 16.9527 12.4593 15.4859 14.253L10.6929 20.114C10.4878 20.3648 10.2295 20.567 9.93668 20.7057C9.64389 20.8445 9.32391 20.9165 8.99989 20.9165C8.67586 20.9165 8.35589 20.8445 8.06309 20.7057C7.7703 20.567 7.51201 20.3648 7.30689 20.114L2.51389 14.253C1.047 12.4593 0.333573 10.1663 0.523888 7.857ZM8.78389 1.75C7.08037 1.75026 5.43922 2.39103 4.18621 3.54512C2.93319 4.69921 2.15992 6.28225 2.01989 7.98C1.86149 9.90186 2.45517 11.8102 3.67589 13.303L8.46889 19.165C8.53332 19.2439 8.61448 19.3074 8.70649 19.351C8.7985 19.3947 8.89906 19.4173 9.00089 19.4173C9.10272 19.4173 9.20328 19.3947 9.29529 19.351C9.3873 19.3074 9.46846 19.2439 9.53289 19.165L14.3259 13.303C15.5459 11.8099 16.1388 9.90159 15.9799 7.98C15.8398 6.28208 15.0664 4.6989 13.8132 3.54478C12.56 2.39066 10.9186 1.75001 9.21489 1.75H8.78389Z" fill="white"/>
</svg>
